<?xml version="1.0" encoding="utf-8" standalone="no"?>
<!DOCTYPE svg PUBLIC "-//W3C//DTD SVG 1.1//EN"
  "http://www.w3.org/Graphics/SVG/1.1/DTD/svg11.dtd">
<!-- Created with matplotlib (http://matplotlib.org/) -->
<svg height="231pt" version="1.1" viewBox="0 0 237 231" width="237pt" xmlns="http://www.w3.org/2000/svg" xmlns:xlink="http://www.w3.org/1999/xlink">
 <defs>
  <style type="text/css">
*{stroke-linecap:butt;stroke-linejoin:round;}
  </style>
 </defs>
 <g id="figure_1">
  <g id="patch_1">
   <path d="M 0 231.84 
L 237.6 231.84 
L 237.6 0 
L 0 0 
z
" style="fill:none;"/>
  </g>
  <g id="axes_1">
   <g id="patch_2">
    <path d="M 7.2 224.64 
L 230.4 224.64 
L 230.4 7.2 
L 7.2 7.2 
z
" style="fill:none;"/>
   </g>
   <g id="matplotlib.axis_1"/>
   <g id="matplotlib.axis_2"/>
   <g id="patch_3">
    <path clip-path="url(#pd85dd252e1)" d="M 118.8 17.083636 
L 220.254545 148.865455 
L 118.8 214.756364 
z
" style="opacity:0.7;"/>
   </g>
   <g id="patch_4">
    <path clip-path="url(#pd85dd252e1)" d="M 17.345455 148.865455 
L 220.254545 148.865455 
L 118.8 214.756364 
z
" style="opacity:0.3;"/>
   </g>
   <g id="patch_5">
    <path clip-path="url(#pd85dd252e1)" d="M 17.345455 148.865455 
L 118.8 17.083636 
L 118.8 214.756364 
z
" style="fill:#ffffff;opacity:0.7;"/>
   </g>
   <g id="line2d_1">
    <path clip-path="url(#pd85dd252e1)" d="M 118.8 17.083636 
L 220.254545 148.865455 
L 118.8 214.756364 
L 17.345455 148.865455 
" style="fill:none;stroke:#000000;stroke-linecap:round;stroke-width:1.75;"/>
    <defs>
     <path d="M 0 3.5 
C 0.928211 3.5 1.81853 3.131218 2.474874 2.474874 
C 3.131218 1.81853 3.5 0.928211 3.5 0 
C 3.5 -0.928211 3.131218 -1.81853 2.474874 -2.474874 
C 1.81853 -3.131218 0.928211 -3.5 0 -3.5 
C -0.928211 -3.5 -1.81853 -3.131218 -2.474874 -2.474874 
C -3.131218 -1.81853 -3.5 -0.928211 -3.5 0 
C -3.5 0.928211 -3.131218 1.81853 -2.474874 2.474874 
C -1.81853 3.131218 -0.928211 3.5 0 3.5 
z
" id="m3776b0ef82"/>
    </defs>
    <g clip-path="url(#pd85dd252e1)">
     <use x="118.8" xlink:href="#m3776b0ef82" y="17.083636"/>
     <use x="220.254545" xlink:href="#m3776b0ef82" y="148.865455"/>
     <use x="118.8" xlink:href="#m3776b0ef82" y="214.756364"/>
     <use x="17.345455" xlink:href="#m3776b0ef82" y="148.865455"/>
    </g>
   </g>
   <g id="line2d_2">
    <path clip-path="url(#pd85dd252e1)" d="M 118.8 17.083636 
L 220.254545 148.865455 
" style="fill:none;stroke:#000000;stroke-linecap:round;stroke-width:1.75;"/>
   </g>
   <g id="line2d_3">
    <path clip-path="url(#pd85dd252e1)" d="M 220.254545 148.865455 
L 118.8 214.756364 
" style="fill:none;stroke:#000000;stroke-linecap:round;stroke-width:1.75;"/>
   </g>
   <g id="line2d_4">
    <path clip-path="url(#pd85dd252e1)" d="M 118.8 214.756364 
L 17.345455 148.865455 
" style="fill:none;stroke:#000000;stroke-linecap:round;stroke-width:1.75;"/>
   </g>
   <g id="line2d_5">
    <path clip-path="url(#pd85dd252e1)" d="M 17.345455 148.865455 
L 118.8 17.083636 
" style="fill:none;stroke:#000000;stroke-linecap:round;stroke-width:1.75;"/>
   </g>
   <g id="line2d_6">
    <path clip-path="url(#pd85dd252e1)" d="M 17.345455 148.865455 
L 220.254545 148.865455 
" style="fill:none;opacity:0.7;stroke:#000000;stroke-linecap:round;stroke-width:1.75;"/>
   </g>
   <g id="line2d_7">
    <path clip-path="url(#pd85dd252e1)" d="M 118.8 148.865455 
L 220.254545 148.865455 
" style="fill:none;stroke:#000000;stroke-linecap:round;stroke-width:1.75;"/>
   </g>
   <g id="line2d_8">
    <path clip-path="url(#pd85dd252e1)" d="M 118.8 214.756364 
L 118.8 17.083636 
" style="fill:none;stroke:#000000;stroke-linecap:round;stroke-width:1.75;"/>
   </g>
  </g>
 </g>
 <defs>
  <clipPath id="pd85dd252e1">
   <rect height="217.44" width="223.2" x="7.2" y="7.2"/>
  </clipPath>
 </defs>
</svg>
