<?xml version="1.0" encoding="utf-8" standalone="no"?>
<!DOCTYPE svg PUBLIC "-//W3C//DTD SVG 1.1//EN"
  "http://www.w3.org/Graphics/SVG/1.1/DTD/svg11.dtd">
<!-- Created with matplotlib (http://matplotlib.org/) -->
<svg height="504pt" version="1.1" viewBox="0 0 504 504" width="504pt" xmlns="http://www.w3.org/2000/svg" xmlns:xlink="http://www.w3.org/1999/xlink">
 <defs>
  <style type="text/css">
*{stroke-linecap:butt;stroke-linejoin:round;}
  </style>
 </defs>
 <g id="figure_1">
  <g id="patch_1">
   <path d="M 0 504 
L 504 504 
L 504 0 
L 0 0 
z
" style="fill:none;"/>
  </g>
  <g id="axes_1">
   <g id="patch_2">
    <path d="M 63 441 
L 453.6 441 
L 453.6 60.48 
L 63 60.48 
z
" style="fill:none;"/>
   </g>
   <g id="matplotlib.axis_1">
    <g id="text_1">
     <!-- $\rho$ -->
     <defs>
      <path d="M 18.796875 44.921875 
Q 22.703125 49.90625 30.953125 54.296875 
Q 34.1875 56 43.0625 56 
Q 53.03125 56 57.71875 48.09375 
Q 62.40625 40.1875 59.90625 27.296875 
Q 57.375 14.40625 49.609375 6.484375 
Q 41.84375 -1.421875 31.890625 -1.421875 
Q 25.875 -1.421875 22.015625 0.984375 
Q 18.171875 3.328125 16.3125 8.203125 
L 10.640625 -20.796875 
L 1.609375 -20.796875 
L 10.890625 26.8125 
Q 13.09375 38.09375 18.796875 44.921875 
z
M 50.59375 27.296875 
Q 52.484375 37.203125 49.515625 42.875 
Q 46.53125 48.484375 39.40625 48.484375 
Q 32.28125 48.484375 27.09375 42.875 
Q 21.921875 37.203125 20.015625 27.296875 
Q 18.0625 17.390625 21.046875 11.71875 
Q 24.03125 6.109375 31.15625 6.109375 
Q 38.28125 6.109375 43.453125 11.71875 
Q 48.640625 17.390625 50.59375 27.296875 
z
" id="DejaVuSans-Oblique-3c1"/>
     </defs>
     <g style="fill:#262626;" transform="translate(251.436 461.255078)scale(0.2145 -0.2145)">
      <use xlink:href="#DejaVuSans-Oblique-3c1"/>
     </g>
    </g>
   </g>
   <g id="matplotlib.axis_2">
    <g id="text_2">
     <!-- $l/k$ -->
     <defs>
      <path d="M 18.3125 75.984375 
L 27.296875 75.984375 
L 12.5 0 
L 3.515625 0 
z
" id="DejaVuSans-Oblique-6c"/>
      <path d="M 25.390625 72.90625 
L 33.6875 72.90625 
L 8.296875 -9.28125 
L 0 -9.28125 
z
" id="DejaVuSans-2f"/>
      <path d="M 18.3125 75.984375 
L 27.296875 75.984375 
L 18.703125 31.6875 
L 49.515625 54.6875 
L 61.1875 54.6875 
L 26.8125 28.515625 
L 51.90625 0 
L 41.015625 0 
L 17.671875 26.703125 
L 12.5 0 
L 3.515625 0 
z
" id="DejaVuSans-Oblique-6b"/>
     </defs>
     <g style="fill:#262626;" transform="translate(54.53907 263.61)rotate(-90)scale(0.2145 -0.2145)">
      <use transform="translate(0 0.015625)" xlink:href="#DejaVuSans-Oblique-6c"/>
      <use transform="translate(27.783203 0.015625)" xlink:href="#DejaVuSans-2f"/>
      <use transform="translate(61.474609 0.015625)" xlink:href="#DejaVuSans-Oblique-6b"/>
     </g>
    </g>
   </g>
   <g id="PolyCollection_1">
    <path clip-path="url(#p621ece8dd2)" d="M 63.390991 60.48 
L 63.390991 62.562769 
L 63.781982 64.621488 
L 64.172973 66.656631 
L 64.563964 68.668658 
L 64.954955 70.658015 
L 65.345946 72.625139 
L 65.736937 74.570453 
L 66.127928 76.494368 
L 66.518919 78.397287 
L 66.90991 80.279598 
L 67.300901 82.141682 
L 67.691892 83.983909 
L 68.082883 85.80664 
L 68.473874 87.610227 
L 68.864865 89.395011 
L 69.255856 91.161326 
L 69.646847 92.909498 
L 70.037838 94.639844 
L 70.428829 96.352673 
L 70.81982 98.048288 
L 71.210811 99.726982 
L 71.601802 101.389043 
L 71.992793 103.034752 
L 72.383784 104.664382 
L 72.774775 106.278201 
L 73.165766 107.87647 
L 73.556757 109.459443 
L 73.947748 111.02737 
L 74.338739 112.580494 
L 74.72973 114.119053 
L 75.120721 115.643279 
L 75.511712 117.1534 
L 75.902703 118.649637 
L 76.293694 120.132207 
L 76.684685 121.601324 
L 77.075676 123.057194 
L 77.466667 124.50002 
L 77.857658 125.930002 
L 78.248649 127.347335 
L 78.63964 128.752207 
L 79.030631 130.144806 
L 79.421622 131.525314 
L 79.812613 132.893909 
L 80.203604 134.250767 
L 80.594595 135.596059 
L 80.985586 136.929951 
L 81.376577 138.252609 
L 81.767568 139.564193 
L 82.158559 140.864861 
L 82.54955 142.154768 
L 82.940541 143.434065 
L 83.331532 144.702899 
L 83.722523 145.961418 
L 84.113514 147.209763 
L 84.504505 148.448075 
L 84.895495 149.67649 
L 85.286486 150.895142 
L 85.677477 152.104165 
L 86.068468 153.303687 
L 86.459459 154.493835 
L 86.85045 155.674734 
L 87.241441 156.846506 
L 87.632432 158.00927 
L 88.023423 159.163146 
L 88.414414 160.308248 
L 88.805405 161.444689 
L 89.196396 162.572582 
L 89.587387 163.692035 
L 89.978378 164.803156 
L 90.369369 165.906051 
L 90.76036 167.000822 
L 91.151351 168.087573 
L 91.542342 169.166401 
L 91.933333 170.237407 
L 92.324324 171.300686 
L 92.715315 172.356334 
L 93.106306 173.404443 
L 93.497297 174.445104 
L 93.888288 175.478409 
L 94.279279 176.504445 
L 94.67027 177.5233 
L 95.061261 178.535059 
L 95.452252 179.539806 
L 95.843243 180.537623 
L 96.234234 181.528593 
L 96.625225 182.512795 
L 97.016216 183.490307 
L 97.407207 184.461207 
L 97.798198 185.425572 
L 98.189189 186.383476 
L 98.58018 187.334992 
L 98.971171 188.280194 
L 99.362162 189.219152 
L 99.753153 190.151938 
L 100.144144 191.078619 
L 100.535135 191.999263 
L 100.926126 192.913939 
L 101.317117 193.822712 
L 101.708108 194.725646 
L 102.099099 195.622805 
L 102.49009 196.514253 
L 102.881081 197.400052 
L 103.272072 198.280261 
L 103.663063 199.154942 
L 104.054054 200.024154 
L 104.445045 200.887954 
L 104.836036 201.7464 
L 105.227027 202.59955 
L 105.618018 203.447457 
L 106.009009 204.290178 
L 106.4 205.127766 
L 106.790991 205.960275 
L 107.181982 206.787757 
L 107.572973 207.610264 
L 107.963964 208.427847 
L 108.354955 209.240555 
L 108.745946 210.04844 
L 109.136937 210.851549 
L 109.527928 211.649931 
L 109.918919 212.443633 
L 110.30991 213.232702 
L 110.700901 214.017183 
L 111.091892 214.797124 
L 111.482883 215.572567 
L 111.873874 216.343559 
L 112.264865 217.110141 
L 112.655856 217.872358 
L 113.046847 218.630252 
L 113.437838 219.383864 
L 113.828829 220.133236 
L 114.21982 220.878408 
L 114.610811 221.619421 
L 115.001802 222.356315 
L 115.392793 223.089128 
L 115.783784 223.817899 
L 116.174775 224.542667 
L 116.565766 225.263468 
L 116.956757 225.98034 
L 117.347748 226.69332 
L 117.738739 227.402443 
L 118.12973 228.107745 
L 118.520721 228.809262 
L 118.911712 229.507028 
L 119.302703 230.201078 
L 119.693694 230.891444 
L 120.084685 231.578162 
L 120.475676 232.261263 
L 120.866667 232.94078 
L 121.257658 233.616746 
L 121.648649 234.289192 
L 122.03964 234.95815 
L 122.430631 235.62365 
L 122.821622 236.285723 
L 123.212613 236.9444 
L 123.603604 237.59971 
L 123.994595 238.251682 
L 124.385586 238.900347 
L 124.776577 239.545731 
L 125.167568 240.187865 
L 125.558559 240.826776 
L 125.94955 241.462491 
L 126.340541 242.095038 
L 126.731532 242.724445 
L 127.122523 243.350737 
L 127.513514 243.973942 
L 127.904505 244.594085 
L 128.295495 245.211192 
L 128.686486 245.82529 
L 129.077477 246.436401 
L 129.468468 247.044553 
L 129.859459 247.649769 
L 130.25045 248.252074 
L 130.641441 248.851492 
L 131.032432 249.448046 
L 131.423423 250.04176 
L 131.814414 250.632657 
L 132.205405 251.22076 
L 132.596396 251.806093 
L 132.987387 252.388677 
L 133.378378 252.968534 
L 133.769369 253.545686 
L 134.16036 254.120156 
L 134.551351 254.691964 
L 134.942342 255.261133 
L 135.333333 255.827681 
L 135.724324 256.391632 
L 136.115315 256.953004 
L 136.506306 257.511819 
L 136.897297 258.068096 
L 137.288288 258.621855 
L 137.679279 259.173116 
L 138.07027 259.721898 
L 138.461261 260.26822 
L 138.852252 260.812102 
L 139.243243 261.353563 
L 139.634234 261.89262 
L 140.025225 262.429292 
L 140.416216 262.963597 
L 140.807207 263.495554 
L 141.198198 264.02518 
L 141.589189 264.552493 
L 141.98018 265.07751 
L 142.371171 265.600249 
L 142.762162 266.120726 
L 143.153153 266.638958 
L 143.544144 267.154963 
L 143.935135 267.668756 
L 144.326126 268.180355 
L 144.717117 268.689775 
L 145.108108 269.197032 
L 145.499099 269.702142 
L 145.89009 270.205121 
L 146.281081 270.705985 
L 146.672072 271.204749 
L 147.063063 271.701427 
L 147.454054 272.196036 
L 147.845045 272.68859 
L 148.236036 273.179104 
L 148.627027 273.667592 
L 149.018018 274.15407 
L 149.409009 274.638551 
L 149.8 275.121049 
L 150.190991 275.601579 
L 150.581982 276.080155 
L 150.972973 276.556789 
L 151.363964 277.031497 
L 151.754955 277.504292 
L 152.145946 277.975186 
L 152.536937 278.444194 
L 152.927928 278.911328 
L 153.318919 279.376601 
L 153.70991 279.840026 
L 154.100901 280.301616 
L 154.491892 280.761384 
L 154.882883 281.219342 
L 155.273874 281.675502 
L 155.664865 282.129877 
L 156.055856 282.582479 
L 156.446847 283.03332 
L 156.837838 283.482412 
L 157.228829 283.929766 
L 157.61982 284.375395 
L 158.010811 284.81931 
L 158.401802 285.261522 
L 158.792793 285.702043 
L 159.183784 286.140884 
L 159.574775 286.578057 
L 159.965766 287.013572 
L 160.356757 287.44744 
L 160.747748 287.879673 
L 161.138739 288.31028 
L 161.52973 288.739274 
L 161.920721 289.166663 
L 162.311712 289.592459 
L 162.702703 290.016672 
L 163.093694 290.439313 
L 163.484685 290.860391 
L 163.875676 291.279917 
L 164.266667 291.697901 
L 164.657658 292.114352 
L 165.048649 292.529281 
L 165.43964 292.942697 
L 165.830631 293.35461 
L 166.221622 293.76503 
L 166.612613 294.173965 
L 167.003604 294.581426 
L 167.394595 294.987422 
L 167.785586 295.391961 
L 168.176577 295.795054 
L 168.567568 296.196709 
L 168.958559 296.596935 
L 169.34955 296.995741 
L 169.740541 297.393136 
L 170.131532 297.78913 
L 170.522523 298.183729 
L 170.913514 298.576944 
L 171.304505 298.968782 
L 171.695495 299.359253 
L 172.086486 299.748364 
L 172.477477 300.136124 
L 172.868468 300.522542 
L 173.259459 300.907625 
L 173.65045 301.291381 
L 174.041441 301.673819 
L 174.432432 302.054946 
L 174.823423 302.434771 
L 175.214414 302.813302 
L 175.605405 303.190545 
L 175.996396 303.56651 
L 176.387387 303.941203 
L 176.778378 304.314632 
L 177.169369 304.686805 
L 177.56036 305.057729 
L 177.951351 305.427412 
L 178.342342 305.795861 
L 178.733333 306.163083 
L 179.124324 306.529086 
L 179.515315 306.893877 
L 179.906306 307.257462 
L 180.297297 307.619849 
L 180.688288 307.981045 
L 181.079279 308.341057 
L 181.47027 308.699892 
L 181.861261 309.057557 
L 182.252252 309.414057 
L 182.643243 309.769401 
L 183.034234 310.123595 
L 183.425225 310.476646 
L 183.816216 310.828559 
L 184.207207 311.179342 
L 184.598198 311.529001 
L 184.989189 311.877543 
L 185.38018 312.224973 
L 185.771171 312.571298 
L 186.162162 312.916525 
L 186.553153 313.26066 
L 186.944144 313.603708 
L 187.335135 313.945677 
L 187.726126 314.286571 
L 188.117117 314.626398 
L 188.508108 314.965163 
L 188.899099 315.302871 
L 189.29009 315.63953 
L 189.681081 315.975144 
L 190.072072 316.309721 
L 190.463063 316.643264 
L 190.854054 316.975781 
L 191.245045 317.307276 
L 191.636036 317.637756 
L 192.027027 317.967225 
L 192.418018 318.295691 
L 192.809009 318.623157 
L 193.2 318.94963 
L 193.590991 319.275115 
L 193.981982 319.599617 
L 194.372973 319.923142 
L 194.763964 320.245695 
L 195.154955 320.567281 
L 195.545946 320.887906 
L 195.936937 321.207574 
L 196.327928 321.526291 
L 196.718919 321.844063 
L 197.10991 322.160893 
L 197.500901 322.476788 
L 197.891892 322.791751 
L 198.282883 323.105789 
L 198.673874 323.418906 
L 199.064865 323.731107 
L 199.455856 324.042396 
L 199.846847 324.352779 
L 200.237838 324.662261 
L 200.628829 324.970846 
L 201.01982 325.278538 
L 201.410811 325.585343 
L 201.801802 325.891266 
L 202.192793 326.19631 
L 202.583784 326.500481 
L 202.974775 326.803783 
L 203.365766 327.106221 
L 203.756757 327.407798 
L 204.147748 327.708521 
L 204.538739 328.008392 
L 204.92973 328.307416 
L 205.320721 328.605599 
L 205.711712 328.902943 
L 206.102703 329.199454 
L 206.493694 329.495136 
L 206.884685 329.789992 
L 207.275676 330.084028 
L 207.666667 330.377247 
L 208.057658 330.669654 
L 208.448649 330.961252 
L 208.83964 331.252046 
L 209.230631 331.54204 
L 209.621622 331.831238 
L 210.012613 332.119644 
L 210.403604 332.407262 
L 210.794595 332.694096 
L 211.185586 332.98015 
L 211.576577 333.265428 
L 211.967568 333.549933 
L 212.358559 333.83367 
L 212.74955 334.116643 
L 213.140541 334.398854 
L 213.531532 334.680309 
L 213.922523 334.96101 
L 214.313514 335.240962 
L 214.704505 335.520169 
L 215.095495 335.798633 
L 215.486486 336.076359 
L 215.877477 336.35335 
L 216.268468 336.62961 
L 216.659459 336.905143 
L 217.05045 337.179951 
L 217.441441 337.454039 
L 217.832432 337.727411 
L 218.223423 338.000069 
L 218.614414 338.272017 
L 219.005405 338.543259 
L 219.396396 338.813798 
L 219.787387 339.083637 
L 220.178378 339.35278 
L 220.569369 339.62123 
L 220.96036 339.888991 
L 221.351351 340.156066 
L 221.742342 340.422458 
L 222.133333 340.68817 
L 222.524324 340.953207 
L 222.915315 341.21757 
L 223.306306 341.481263 
L 223.697297 341.74429 
L 224.088288 342.006654 
L 224.479279 342.268357 
L 224.87027 342.529403 
L 225.261261 342.789795 
L 225.652252 343.049537 
L 226.043243 343.30863 
L 226.434234 343.567079 
L 226.825225 343.824887 
L 227.216216 344.082056 
L 227.607207 344.338589 
L 227.998198 344.594489 
L 228.389189 344.84976 
L 228.78018 345.104405 
L 229.171171 345.358425 
L 229.562162 345.611825 
L 229.953153 345.864607 
L 230.344144 346.116774 
L 230.735135 346.368328 
L 231.126126 346.619274 
L 231.517117 346.869613 
L 231.908108 347.119348 
L 232.299099 347.368483 
L 232.69009 347.617019 
L 233.081081 347.86496 
L 233.472072 348.112309 
L 233.863063 348.359068 
L 234.254054 348.605239 
L 234.645045 348.850827 
L 235.036036 349.095832 
L 235.427027 349.340259 
L 235.818018 349.584109 
L 236.209009 349.827385 
L 236.6 350.070091 
L 236.990991 350.312228 
L 237.381982 350.553799 
L 237.772973 350.794806 
L 238.163964 351.035253 
L 238.554955 351.275142 
L 238.945946 351.514475 
L 239.336937 351.753254 
L 239.727928 351.991484 
L 240.118919 352.229165 
L 240.50991 352.4663 
L 240.900901 352.702892 
L 241.291892 352.938943 
L 241.682883 353.174456 
L 242.073874 353.409433 
L 242.464865 353.643876 
L 242.855856 353.877788 
L 243.246847 354.111172 
L 243.637838 354.344029 
L 244.028829 354.576362 
L 244.41982 354.808173 
L 244.810811 355.039465 
L 245.201802 355.27024 
L 245.592793 355.5005 
L 245.983784 355.730248 
L 246.374775 355.959486 
L 246.765766 356.188215 
L 247.156757 356.416439 
L 247.547748 356.644159 
L 247.938739 356.871379 
L 248.32973 357.098099 
L 248.720721 357.324322 
L 249.111712 357.550051 
L 249.502703 357.775287 
L 249.893694 358.000033 
L 250.284685 358.224291 
L 250.675676 358.448063 
L 251.066667 358.671351 
L 251.457658 358.894157 
L 251.848649 359.116484 
L 252.23964 359.338333 
L 252.630631 359.559707 
L 253.021622 359.780607 
L 253.412613 360.001036 
L 253.803604 360.220996 
L 254.194595 360.440489 
L 254.585586 360.659516 
L 254.976577 360.87808 
L 255.367568 361.096183 
L 255.758559 361.313827 
L 256.14955 361.531014 
L 256.540541 361.747745 
L 256.931532 361.964024 
L 257.322523 362.179851 
L 257.713514 362.395228 
L 258.104505 362.610159 
L 258.495495 362.824643 
L 258.886486 363.038685 
L 259.277477 363.252284 
L 259.668468 363.465444 
L 260.059459 363.678166 
L 260.45045 363.890453 
L 260.841441 364.102305 
L 261.232432 364.313724 
L 261.623423 364.524714 
L 262.014414 364.735275 
L 262.405405 364.945409 
L 262.796396 365.155118 
L 263.187387 365.364404 
L 263.578378 365.573269 
L 263.969369 365.781714 
L 264.36036 365.989742 
L 264.751351 366.197353 
L 265.142342 366.404551 
L 265.533333 366.611336 
L 265.924324 366.81771 
L 266.315315 367.023676 
L 266.706306 367.229234 
L 267.097297 367.434387 
L 267.488288 367.639136 
L 267.879279 367.843483 
L 268.27027 368.04743 
L 268.661261 368.250978 
L 269.052252 368.454129 
L 269.443243 368.656885 
L 269.834234 368.859247 
L 270.225225 369.061218 
L 270.616216 369.262798 
L 271.007207 369.463989 
L 271.398198 369.664793 
L 271.789189 369.865212 
L 272.18018 370.065247 
L 272.571171 370.2649 
L 272.962162 370.464173 
L 273.353153 370.663066 
L 273.744144 370.861582 
L 274.135135 371.059723 
L 274.526126 371.257489 
L 274.917117 371.454882 
L 275.308108 371.651904 
L 275.699099 371.848557 
L 276.09009 372.044842 
L 276.481081 372.24076 
L 276.872072 372.436314 
L 277.263063 372.631504 
L 277.654054 372.826332 
L 278.045045 373.0208 
L 278.436036 373.214909 
L 278.827027 373.40866 
L 279.218018 373.602056 
L 279.609009 373.795097 
L 280 373.987785 
L 280.390991 374.180122 
L 280.781982 374.372109 
L 281.172973 374.563748 
L 281.563964 374.755039 
L 281.954955 374.945985 
L 282.345946 375.136586 
L 282.736937 375.326845 
L 283.127928 375.516763 
L 283.518919 375.70634 
L 283.90991 375.895579 
L 284.300901 376.084481 
L 284.691892 376.273047 
L 285.082883 376.461279 
L 285.473874 376.649178 
L 285.864865 376.836746 
L 286.255856 377.023983 
L 286.646847 377.210892 
L 287.037838 377.397473 
L 287.428829 377.583728 
L 287.81982 377.769659 
L 288.210811 377.955266 
L 288.601802 378.140551 
L 288.992793 378.325516 
L 289.383784 378.510161 
L 289.774775 378.694488 
L 290.165766 378.878498 
L 290.556757 379.062194 
L 290.947748 379.245575 
L 291.338739 379.428643 
L 291.72973 379.6114 
L 292.120721 379.793846 
L 292.511712 379.975984 
L 292.902703 380.157814 
L 293.293694 380.339338 
L 293.684685 380.520557 
L 294.075676 380.701472 
L 294.466667 380.882085 
L 294.857658 381.062396 
L 295.248649 381.242407 
L 295.63964 381.42212 
L 296.030631 381.601535 
L 296.421622 381.780654 
L 296.812613 381.959478 
L 297.203604 382.138008 
L 297.594595 382.316245 
L 297.985586 382.494191 
L 298.376577 382.671847 
L 298.767568 382.849214 
L 299.158559 383.026293 
L 299.54955 383.203086 
L 299.940541 383.379594 
L 300.331532 383.555817 
L 300.722523 383.731757 
L 301.113514 383.907416 
L 301.504505 384.082794 
L 301.895495 384.257892 
L 302.286486 384.432713 
L 302.677477 384.607256 
L 303.068468 384.781523 
L 303.459459 384.955516 
L 303.85045 385.129235 
L 304.241441 385.302681 
L 304.632432 385.475857 
L 305.023423 385.648762 
L 305.414414 385.821398 
L 305.805405 385.993766 
L 306.196396 386.165867 
L 306.587387 386.337703 
L 306.978378 386.509274 
L 307.369369 386.680582 
L 307.76036 386.851628 
L 308.151351 387.022412 
L 308.542342 387.192936 
L 308.933333 387.363202 
L 309.324324 387.533209 
L 309.715315 387.70296 
L 310.106306 387.872455 
L 310.497297 388.041695 
L 310.888288 388.210682 
L 311.279279 388.379417 
L 311.67027 388.5479 
L 312.061261 388.716133 
L 312.452252 388.884117 
L 312.843243 389.051852 
L 313.234234 389.219341 
L 313.625225 389.386583 
L 314.016216 389.55358 
L 314.407207 389.720334 
L 314.798198 389.886845 
L 315.189189 390.053114 
L 315.58018 390.219142 
L 315.971171 390.38493 
L 316.362162 390.55048 
L 316.753153 390.715792 
L 317.144144 390.880867 
L 317.535135 391.045707 
L 317.926126 391.210313 
L 318.317117 391.374684 
L 318.708108 391.538824 
L 319.099099 391.702731 
L 319.49009 391.866408 
L 319.881081 392.029856 
L 320.272072 392.193075 
L 320.663063 392.356067 
L 321.054054 392.518833 
L 321.445045 392.681372 
L 321.836036 392.843688 
L 322.227027 393.00578 
L 322.618018 393.167649 
L 323.009009 393.329297 
L 323.4 393.490724 
L 323.790991 393.651932 
L 324.181982 393.812921 
L 324.572973 393.973693 
L 324.963964 394.134248 
L 325.354955 394.294588 
L 325.745946 394.454713 
L 326.136937 394.614624 
L 326.527928 394.774322 
L 326.918919 394.933809 
L 327.30991 395.093085 
L 327.700901 395.252151 
L 328.091892 395.411008 
L 328.482883 395.569657 
L 328.873874 395.7281 
L 329.264865 395.886336 
L 329.655856 396.044367 
L 330.046847 396.202194 
L 330.437838 396.359818 
L 330.828829 396.51724 
L 331.21982 396.67446 
L 331.610811 396.83148 
L 332.001802 396.9883 
L 332.392793 397.144922 
L 332.783784 397.301347 
L 333.174775 397.457575 
L 333.565766 397.613607 
L 333.956757 397.769444 
L 334.347748 397.925088 
L 334.738739 398.080538 
L 335.12973 398.235797 
L 335.520721 398.390864 
L 335.911712 398.545741 
L 336.302703 398.700429 
L 336.693694 398.854929 
L 337.084685 399.009241 
L 337.475676 399.163367 
L 337.866667 399.317307 
L 338.257658 399.471062 
L 338.648649 399.624633 
L 339.03964 399.778022 
L 339.430631 399.931228 
L 339.821622 400.084254 
L 340.212613 400.237099 
L 340.603604 400.389765 
L 340.994595 400.542253 
L 341.385586 400.694563 
L 341.776577 400.846696 
L 342.167568 400.998654 
L 342.558559 401.150437 
L 342.94955 401.302046 
L 343.340541 401.453481 
L 343.731532 401.604745 
L 344.122523 401.755837 
L 344.513514 401.906759 
L 344.904505 402.057512 
L 345.295495 402.208096 
L 345.686486 402.358512 
L 346.077477 402.508761 
L 346.468468 402.658845 
L 346.859459 402.808763 
L 347.25045 402.958517 
L 347.641441 403.108107 
L 348.032432 403.257536 
L 348.423423 403.406802 
L 348.814414 403.555908 
L 349.205405 403.704854 
L 349.596396 403.853641 
L 349.987387 404.00227 
L 350.378378 404.150742 
L 350.769369 404.299057 
L 351.16036 404.447217 
L 351.551351 404.595223 
L 351.942342 404.743074 
L 352.333333 404.890773 
L 352.724324 405.03832 
L 353.115315 405.185716 
L 353.506306 405.332961 
L 353.897297 405.480057 
L 354.288288 405.627005 
L 354.679279 405.773805 
L 355.07027 405.920458 
L 355.461261 406.066965 
L 355.852252 406.213327 
L 356.243243 406.359545 
L 356.634234 406.50562 
L 357.025225 406.651552 
L 357.416216 406.797342 
L 357.807207 406.942992 
L 358.198198 407.088503 
L 358.589189 407.233874 
L 358.98018 407.379107 
L 359.371171 407.524202 
L 359.762162 407.669162 
L 360.153153 407.813986 
L 360.544144 407.958675 
L 360.935135 408.10323 
L 361.326126 408.247653 
L 361.717117 408.391944 
L 362.108108 408.536103 
L 362.499099 408.680132 
L 362.89009 408.824032 
L 363.281081 408.967803 
L 363.672072 409.111446 
L 364.063063 409.254963 
L 364.454054 409.398353 
L 364.845045 409.541619 
L 365.236036 409.68476 
L 365.627027 409.827778 
L 366.018018 409.970674 
L 366.409009 410.113448 
L 366.8 410.256101 
L 367.190991 410.398635 
L 367.581982 410.541049 
L 367.972973 410.683346 
L 368.363964 410.825525 
L 368.754955 410.967588 
L 369.145946 411.109535 
L 369.536937 411.251368 
L 369.927928 411.393088 
L 370.318919 411.534694 
L 370.70991 411.676189 
L 371.100901 411.817572 
L 371.491892 411.958846 
L 371.882883 412.10001 
L 372.273874 412.241066 
L 372.664865 412.382015 
L 373.055856 412.522857 
L 373.446847 412.663593 
L 373.837838 412.804225 
L 374.228829 412.944753 
L 374.61982 413.085178 
L 375.010811 413.2255 
L 375.401802 413.365722 
L 375.792793 413.505843 
L 376.183784 413.645866 
L 376.574775 413.785789 
L 376.965766 413.925615 
L 377.356757 414.065345 
L 377.747748 414.204979 
L 378.138739 414.344518 
L 378.52973 414.483964 
L 378.920721 414.623316 
L 379.311712 414.762577 
L 379.702703 414.901746 
L 380.093694 415.040826 
L 380.484685 415.179816 
L 380.875676 415.318718 
L 381.266667 415.457533 
L 381.657658 415.596261 
L 382.048649 415.734904 
L 382.43964 415.873462 
L 382.830631 416.011937 
L 383.221622 416.15033 
L 383.612613 416.28864 
L 384.003604 416.426871 
L 384.394595 416.565021 
L 384.785586 416.703093 
L 385.176577 416.841087 
L 385.567568 416.979004 
L 385.958559 417.116846 
L 386.34955 417.254612 
L 386.740541 417.392305 
L 387.131532 417.529925 
L 387.522523 417.667473 
L 387.913514 417.80495 
L 388.304505 417.942358 
L 388.695495 418.079696 
L 389.086486 418.216967 
L 389.477477 418.354171 
L 389.868468 418.491309 
L 390.259459 418.628382 
L 390.65045 418.765392 
L 391.041441 418.902338 
L 391.432432 419.039223 
L 391.823423 419.176048 
L 392.214414 419.312813 
L 392.605405 419.449519 
L 392.996396 419.586167 
L 393.387387 419.72276 
L 393.778378 419.859296 
L 394.169369 419.995779 
L 394.56036 420.132208 
L 394.951351 420.268585 
L 395.342342 420.404911 
L 395.733333 420.541187 
L 396.124324 420.677414 
L 396.515315 420.813593 
L 396.906306 420.949725 
L 397.297297 421.085812 
L 397.688288 421.221855 
L 398.079279 421.357854 
L 398.47027 421.493811 
L 398.861261 421.629726 
L 399.252252 421.765602 
L 399.643243 421.901439 
L 400.034234 422.037239 
L 400.425225 422.173002 
L 400.816216 422.30873 
L 401.207207 422.444424 
L 401.598198 422.580085 
L 401.989189 422.715714 
L 402.38018 422.851313 
L 402.771171 422.986882 
L 403.162162 423.122424 
L 403.553153 423.257938 
L 403.944144 423.393427 
L 404.335135 423.528892 
L 404.726126 423.664334 
L 405.117117 423.799754 
L 405.508108 423.935153 
L 405.899099 424.070533 
L 406.29009 424.205895 
L 406.681081 424.341241 
L 407.072072 424.476571 
L 407.463063 424.611887 
L 407.854054 424.74719 
L 408.245045 424.882482 
L 408.636036 425.017764 
L 409.027027 425.153038 
L 409.418018 425.288304 
L 409.809009 425.423564 
L 410.2 425.55882 
L 410.590991 425.694073 
L 410.981982 425.829324 
L 411.372973 425.964575 
L 411.763964 426.099827 
L 412.154955 426.235082 
L 412.545946 426.370341 
L 412.936937 426.505605 
L 413.327928 426.640877 
L 413.718919 426.776157 
L 414.10991 426.911448 
L 414.500901 427.04675 
L 414.891892 427.182065 
L 415.282883 427.317395 
L 415.673874 427.452742 
L 416.064865 427.588106 
L 416.455856 427.723491 
L 416.846847 427.858896 
L 417.237838 427.994324 
L 417.628829 428.129777 
L 418.01982 428.265256 
L 418.410811 428.400762 
L 418.801802 428.536299 
L 419.192793 428.671866 
L 419.583784 428.807467 
L 419.974775 428.943102 
L 420.365766 429.078774 
L 420.756757 429.214485 
L 421.147748 429.350235 
L 421.538739 429.486028 
L 421.92973 429.621864 
L 422.320721 429.757747 
L 422.711712 429.893676 
L 423.102703 430.029656 
L 423.493694 430.165687 
L 423.884685 430.301772 
L 424.275676 430.437912 
L 424.666667 430.574109 
L 425.057658 430.710366 
L 425.448649 430.846685 
L 425.83964 430.983067 
L 426.230631 431.119515 
L 426.621622 431.256031 
L 427.012613 431.392617 
L 427.403604 431.529275 
L 427.794595 431.666008 
L 428.185586 431.802818 
L 428.576577 431.939706 
L 428.967568 432.076676 
L 429.358559 432.213729 
L 429.74955 432.350869 
L 430.140541 432.488096 
L 430.531532 432.625415 
L 430.922523 432.762827 
L 431.313514 432.900334 
L 431.704505 433.03794 
L 432.095495 433.175647 
L 432.486486 433.313457 
L 432.877477 433.451373 
L 433.268468 433.589398 
L 433.659459 433.727534 
L 434.05045 433.865785 
L 434.441441 434.004152 
L 434.832432 434.142639 
L 435.223423 434.281249 
L 435.614414 434.419985 
L 436.005405 434.558849 
L 436.396396 434.697845 
L 436.787387 434.836975 
L 437.178378 434.976243 
L 437.569369 435.115652 
L 437.96036 435.255205 
L 438.351351 435.394905 
L 438.742342 435.534756 
L 439.133333 435.674761 
L 439.524324 435.814923 
L 439.915315 435.955246 
L 440.306306 436.095733 
L 440.697297 436.236389 
L 441.088288 436.377216 
L 441.479279 436.518218 
L 441.87027 436.659399 
L 442.261261 436.800763 
L 442.652252 436.942314 
L 443.043243 437.084056 
L 443.434234 437.225992 
L 443.825225 437.368128 
L 444.216216 437.510466 
L 444.607207 437.653012 
L 444.998198 437.79577 
L 445.389189 437.938744 
L 445.78018 438.081939 
L 446.171171 438.225359 
L 446.562162 438.369009 
L 446.953153 438.512894 
L 447.344144 438.657018 
L 447.735135 438.801387 
L 448.126126 438.946006 
L 448.517117 439.09088 
L 448.908108 439.236014 
L 449.299099 439.381413 
L 449.69009 439.527084 
L 450.081081 439.673031 
L 450.472072 439.819261 
L 450.863063 439.965779 
L 451.254054 440.112592 
L 451.645045 440.259705 
L 452.036036 440.407124 
L 452.427027 440.554857 
L 452.818018 440.702909 
L 453.209009 440.851288 
L 453.6 441 
L 453.6 60.48 
L 453.6 60.48 
L 453.209009 60.48 
L 452.818018 60.48 
L 452.427027 60.48 
L 452.036036 60.48 
L 451.645045 60.48 
L 451.254054 60.48 
L 450.863063 60.48 
L 450.472072 60.48 
L 450.081081 60.48 
L 449.69009 60.48 
L 449.299099 60.48 
L 448.908108 60.48 
L 448.517117 60.48 
L 448.126126 60.48 
L 447.735135 60.48 
L 447.344144 60.48 
L 446.953153 60.48 
L 446.562162 60.48 
L 446.171171 60.48 
L 445.78018 60.48 
L 445.389189 60.48 
L 444.998198 60.48 
L 444.607207 60.48 
L 444.216216 60.48 
L 443.825225 60.48 
L 443.434234 60.48 
L 443.043243 60.48 
L 442.652252 60.48 
L 442.261261 60.48 
L 441.87027 60.48 
L 441.479279 60.48 
L 441.088288 60.48 
L 440.697297 60.48 
L 440.306306 60.48 
L 439.915315 60.48 
L 439.524324 60.48 
L 439.133333 60.48 
L 438.742342 60.48 
L 438.351351 60.48 
L 437.96036 60.48 
L 437.569369 60.48 
L 437.178378 60.48 
L 436.787387 60.48 
L 436.396396 60.48 
L 436.005405 60.48 
L 435.614414 60.48 
L 435.223423 60.48 
L 434.832432 60.48 
L 434.441441 60.48 
L 434.05045 60.48 
L 433.659459 60.48 
L 433.268468 60.48 
L 432.877477 60.48 
L 432.486486 60.48 
L 432.095495 60.48 
L 431.704505 60.48 
L 431.313514 60.48 
L 430.922523 60.48 
L 430.531532 60.48 
L 430.140541 60.48 
L 429.74955 60.48 
L 429.358559 60.48 
L 428.967568 60.48 
L 428.576577 60.48 
L 428.185586 60.48 
L 427.794595 60.48 
L 427.403604 60.48 
L 427.012613 60.48 
L 426.621622 60.48 
L 426.230631 60.48 
L 425.83964 60.48 
L 425.448649 60.48 
L 425.057658 60.48 
L 424.666667 60.48 
L 424.275676 60.48 
L 423.884685 60.48 
L 423.493694 60.48 
L 423.102703 60.48 
L 422.711712 60.48 
L 422.320721 60.48 
L 421.92973 60.48 
L 421.538739 60.48 
L 421.147748 60.48 
L 420.756757 60.48 
L 420.365766 60.48 
L 419.974775 60.48 
L 419.583784 60.48 
L 419.192793 60.48 
L 418.801802 60.48 
L 418.410811 60.48 
L 418.01982 60.48 
L 417.628829 60.48 
L 417.237838 60.48 
L 416.846847 60.48 
L 416.455856 60.48 
L 416.064865 60.48 
L 415.673874 60.48 
L 415.282883 60.48 
L 414.891892 60.48 
L 414.500901 60.48 
L 414.10991 60.48 
L 413.718919 60.48 
L 413.327928 60.48 
L 412.936937 60.48 
L 412.545946 60.48 
L 412.154955 60.48 
L 411.763964 60.48 
L 411.372973 60.48 
L 410.981982 60.48 
L 410.590991 60.48 
L 410.2 60.48 
L 409.809009 60.48 
L 409.418018 60.48 
L 409.027027 60.48 
L 408.636036 60.48 
L 408.245045 60.48 
L 407.854054 60.48 
L 407.463063 60.48 
L 407.072072 60.48 
L 406.681081 60.48 
L 406.29009 60.48 
L 405.899099 60.48 
L 405.508108 60.48 
L 405.117117 60.48 
L 404.726126 60.48 
L 404.335135 60.48 
L 403.944144 60.48 
L 403.553153 60.48 
L 403.162162 60.48 
L 402.771171 60.48 
L 402.38018 60.48 
L 401.989189 60.48 
L 401.598198 60.48 
L 401.207207 60.48 
L 400.816216 60.48 
L 400.425225 60.48 
L 400.034234 60.48 
L 399.643243 60.48 
L 399.252252 60.48 
L 398.861261 60.48 
L 398.47027 60.48 
L 398.079279 60.48 
L 397.688288 60.48 
L 397.297297 60.48 
L 396.906306 60.48 
L 396.515315 60.48 
L 396.124324 60.48 
L 395.733333 60.48 
L 395.342342 60.48 
L 394.951351 60.48 
L 394.56036 60.48 
L 394.169369 60.48 
L 393.778378 60.48 
L 393.387387 60.48 
L 392.996396 60.48 
L 392.605405 60.48 
L 392.214414 60.48 
L 391.823423 60.48 
L 391.432432 60.48 
L 391.041441 60.48 
L 390.65045 60.48 
L 390.259459 60.48 
L 389.868468 60.48 
L 389.477477 60.48 
L 389.086486 60.48 
L 388.695495 60.48 
L 388.304505 60.48 
L 387.913514 60.48 
L 387.522523 60.48 
L 387.131532 60.48 
L 386.740541 60.48 
L 386.34955 60.48 
L 385.958559 60.48 
L 385.567568 60.48 
L 385.176577 60.48 
L 384.785586 60.48 
L 384.394595 60.48 
L 384.003604 60.48 
L 383.612613 60.48 
L 383.221622 60.48 
L 382.830631 60.48 
L 382.43964 60.48 
L 382.048649 60.48 
L 381.657658 60.48 
L 381.266667 60.48 
L 380.875676 60.48 
L 380.484685 60.48 
L 380.093694 60.48 
L 379.702703 60.48 
L 379.311712 60.48 
L 378.920721 60.48 
L 378.52973 60.48 
L 378.138739 60.48 
L 377.747748 60.48 
L 377.356757 60.48 
L 376.965766 60.48 
L 376.574775 60.48 
L 376.183784 60.48 
L 375.792793 60.48 
L 375.401802 60.48 
L 375.010811 60.48 
L 374.61982 60.48 
L 374.228829 60.48 
L 373.837838 60.48 
L 373.446847 60.48 
L 373.055856 60.48 
L 372.664865 60.48 
L 372.273874 60.48 
L 371.882883 60.48 
L 371.491892 60.48 
L 371.100901 60.48 
L 370.70991 60.48 
L 370.318919 60.48 
L 369.927928 60.48 
L 369.536937 60.48 
L 369.145946 60.48 
L 368.754955 60.48 
L 368.363964 60.48 
L 367.972973 60.48 
L 367.581982 60.48 
L 367.190991 60.48 
L 366.8 60.48 
L 366.409009 60.48 
L 366.018018 60.48 
L 365.627027 60.48 
L 365.236036 60.48 
L 364.845045 60.48 
L 364.454054 60.48 
L 364.063063 60.48 
L 363.672072 60.48 
L 363.281081 60.48 
L 362.89009 60.48 
L 362.499099 60.48 
L 362.108108 60.48 
L 361.717117 60.48 
L 361.326126 60.48 
L 360.935135 60.48 
L 360.544144 60.48 
L 360.153153 60.48 
L 359.762162 60.48 
L 359.371171 60.48 
L 358.98018 60.48 
L 358.589189 60.48 
L 358.198198 60.48 
L 357.807207 60.48 
L 357.416216 60.48 
L 357.025225 60.48 
L 356.634234 60.48 
L 356.243243 60.48 
L 355.852252 60.48 
L 355.461261 60.48 
L 355.07027 60.48 
L 354.679279 60.48 
L 354.288288 60.48 
L 353.897297 60.48 
L 353.506306 60.48 
L 353.115315 60.48 
L 352.724324 60.48 
L 352.333333 60.48 
L 351.942342 60.48 
L 351.551351 60.48 
L 351.16036 60.48 
L 350.769369 60.48 
L 350.378378 60.48 
L 349.987387 60.48 
L 349.596396 60.48 
L 349.205405 60.48 
L 348.814414 60.48 
L 348.423423 60.48 
L 348.032432 60.48 
L 347.641441 60.48 
L 347.25045 60.48 
L 346.859459 60.48 
L 346.468468 60.48 
L 346.077477 60.48 
L 345.686486 60.48 
L 345.295495 60.48 
L 344.904505 60.48 
L 344.513514 60.48 
L 344.122523 60.48 
L 343.731532 60.48 
L 343.340541 60.48 
L 342.94955 60.48 
L 342.558559 60.48 
L 342.167568 60.48 
L 341.776577 60.48 
L 341.385586 60.48 
L 340.994595 60.48 
L 340.603604 60.48 
L 340.212613 60.48 
L 339.821622 60.48 
L 339.430631 60.48 
L 339.03964 60.48 
L 338.648649 60.48 
L 338.257658 60.48 
L 337.866667 60.48 
L 337.475676 60.48 
L 337.084685 60.48 
L 336.693694 60.48 
L 336.302703 60.48 
L 335.911712 60.48 
L 335.520721 60.48 
L 335.12973 60.48 
L 334.738739 60.48 
L 334.347748 60.48 
L 333.956757 60.48 
L 333.565766 60.48 
L 333.174775 60.48 
L 332.783784 60.48 
L 332.392793 60.48 
L 332.001802 60.48 
L 331.610811 60.48 
L 331.21982 60.48 
L 330.828829 60.48 
L 330.437838 60.48 
L 330.046847 60.48 
L 329.655856 60.48 
L 329.264865 60.48 
L 328.873874 60.48 
L 328.482883 60.48 
L 328.091892 60.48 
L 327.700901 60.48 
L 327.30991 60.48 
L 326.918919 60.48 
L 326.527928 60.48 
L 326.136937 60.48 
L 325.745946 60.48 
L 325.354955 60.48 
L 324.963964 60.48 
L 324.572973 60.48 
L 324.181982 60.48 
L 323.790991 60.48 
L 323.4 60.48 
L 323.009009 60.48 
L 322.618018 60.48 
L 322.227027 60.48 
L 321.836036 60.48 
L 321.445045 60.48 
L 321.054054 60.48 
L 320.663063 60.48 
L 320.272072 60.48 
L 319.881081 60.48 
L 319.49009 60.48 
L 319.099099 60.48 
L 318.708108 60.48 
L 318.317117 60.48 
L 317.926126 60.48 
L 317.535135 60.48 
L 317.144144 60.48 
L 316.753153 60.48 
L 316.362162 60.48 
L 315.971171 60.48 
L 315.58018 60.48 
L 315.189189 60.48 
L 314.798198 60.48 
L 314.407207 60.48 
L 314.016216 60.48 
L 313.625225 60.48 
L 313.234234 60.48 
L 312.843243 60.48 
L 312.452252 60.48 
L 312.061261 60.48 
L 311.67027 60.48 
L 311.279279 60.48 
L 310.888288 60.48 
L 310.497297 60.48 
L 310.106306 60.48 
L 309.715315 60.48 
L 309.324324 60.48 
L 308.933333 60.48 
L 308.542342 60.48 
L 308.151351 60.48 
L 307.76036 60.48 
L 307.369369 60.48 
L 306.978378 60.48 
L 306.587387 60.48 
L 306.196396 60.48 
L 305.805405 60.48 
L 305.414414 60.48 
L 305.023423 60.48 
L 304.632432 60.48 
L 304.241441 60.48 
L 303.85045 60.48 
L 303.459459 60.48 
L 303.068468 60.48 
L 302.677477 60.48 
L 302.286486 60.48 
L 301.895495 60.48 
L 301.504505 60.48 
L 301.113514 60.48 
L 300.722523 60.48 
L 300.331532 60.48 
L 299.940541 60.48 
L 299.54955 60.48 
L 299.158559 60.48 
L 298.767568 60.48 
L 298.376577 60.48 
L 297.985586 60.48 
L 297.594595 60.48 
L 297.203604 60.48 
L 296.812613 60.48 
L 296.421622 60.48 
L 296.030631 60.48 
L 295.63964 60.48 
L 295.248649 60.48 
L 294.857658 60.48 
L 294.466667 60.48 
L 294.075676 60.48 
L 293.684685 60.48 
L 293.293694 60.48 
L 292.902703 60.48 
L 292.511712 60.48 
L 292.120721 60.48 
L 291.72973 60.48 
L 291.338739 60.48 
L 290.947748 60.48 
L 290.556757 60.48 
L 290.165766 60.48 
L 289.774775 60.48 
L 289.383784 60.48 
L 288.992793 60.48 
L 288.601802 60.48 
L 288.210811 60.48 
L 287.81982 60.48 
L 287.428829 60.48 
L 287.037838 60.48 
L 286.646847 60.48 
L 286.255856 60.48 
L 285.864865 60.48 
L 285.473874 60.48 
L 285.082883 60.48 
L 284.691892 60.48 
L 284.300901 60.48 
L 283.90991 60.48 
L 283.518919 60.48 
L 283.127928 60.48 
L 282.736937 60.48 
L 282.345946 60.48 
L 281.954955 60.48 
L 281.563964 60.48 
L 281.172973 60.48 
L 280.781982 60.48 
L 280.390991 60.48 
L 280 60.48 
L 279.609009 60.48 
L 279.218018 60.48 
L 278.827027 60.48 
L 278.436036 60.48 
L 278.045045 60.48 
L 277.654054 60.48 
L 277.263063 60.48 
L 276.872072 60.48 
L 276.481081 60.48 
L 276.09009 60.48 
L 275.699099 60.48 
L 275.308108 60.48 
L 274.917117 60.48 
L 274.526126 60.48 
L 274.135135 60.48 
L 273.744144 60.48 
L 273.353153 60.48 
L 272.962162 60.48 
L 272.571171 60.48 
L 272.18018 60.48 
L 271.789189 60.48 
L 271.398198 60.48 
L 271.007207 60.48 
L 270.616216 60.48 
L 270.225225 60.48 
L 269.834234 60.48 
L 269.443243 60.48 
L 269.052252 60.48 
L 268.661261 60.48 
L 268.27027 60.48 
L 267.879279 60.48 
L 267.488288 60.48 
L 267.097297 60.48 
L 266.706306 60.48 
L 266.315315 60.48 
L 265.924324 60.48 
L 265.533333 60.48 
L 265.142342 60.48 
L 264.751351 60.48 
L 264.36036 60.48 
L 263.969369 60.48 
L 263.578378 60.48 
L 263.187387 60.48 
L 262.796396 60.48 
L 262.405405 60.48 
L 262.014414 60.48 
L 261.623423 60.48 
L 261.232432 60.48 
L 260.841441 60.48 
L 260.45045 60.48 
L 260.059459 60.48 
L 259.668468 60.48 
L 259.277477 60.48 
L 258.886486 60.48 
L 258.495495 60.48 
L 258.104505 60.48 
L 257.713514 60.48 
L 257.322523 60.48 
L 256.931532 60.48 
L 256.540541 60.48 
L 256.14955 60.48 
L 255.758559 60.48 
L 255.367568 60.48 
L 254.976577 60.48 
L 254.585586 60.48 
L 254.194595 60.48 
L 253.803604 60.48 
L 253.412613 60.48 
L 253.021622 60.48 
L 252.630631 60.48 
L 252.23964 60.48 
L 251.848649 60.48 
L 251.457658 60.48 
L 251.066667 60.48 
L 250.675676 60.48 
L 250.284685 60.48 
L 249.893694 60.48 
L 249.502703 60.48 
L 249.111712 60.48 
L 248.720721 60.48 
L 248.32973 60.48 
L 247.938739 60.48 
L 247.547748 60.48 
L 247.156757 60.48 
L 246.765766 60.48 
L 246.374775 60.48 
L 245.983784 60.48 
L 245.592793 60.48 
L 245.201802 60.48 
L 244.810811 60.48 
L 244.41982 60.48 
L 244.028829 60.48 
L 243.637838 60.48 
L 243.246847 60.48 
L 242.855856 60.48 
L 242.464865 60.48 
L 242.073874 60.48 
L 241.682883 60.48 
L 241.291892 60.48 
L 240.900901 60.48 
L 240.50991 60.48 
L 240.118919 60.48 
L 239.727928 60.48 
L 239.336937 60.48 
L 238.945946 60.48 
L 238.554955 60.48 
L 238.163964 60.48 
L 237.772973 60.48 
L 237.381982 60.48 
L 236.990991 60.48 
L 236.6 60.48 
L 236.209009 60.48 
L 235.818018 60.48 
L 235.427027 60.48 
L 235.036036 60.48 
L 234.645045 60.48 
L 234.254054 60.48 
L 233.863063 60.48 
L 233.472072 60.48 
L 233.081081 60.48 
L 232.69009 60.48 
L 232.299099 60.48 
L 231.908108 60.48 
L 231.517117 60.48 
L 231.126126 60.48 
L 230.735135 60.48 
L 230.344144 60.48 
L 229.953153 60.48 
L 229.562162 60.48 
L 229.171171 60.48 
L 228.78018 60.48 
L 228.389189 60.48 
L 227.998198 60.48 
L 227.607207 60.48 
L 227.216216 60.48 
L 226.825225 60.48 
L 226.434234 60.48 
L 226.043243 60.48 
L 225.652252 60.48 
L 225.261261 60.48 
L 224.87027 60.48 
L 224.479279 60.48 
L 224.088288 60.48 
L 223.697297 60.48 
L 223.306306 60.48 
L 222.915315 60.48 
L 222.524324 60.48 
L 222.133333 60.48 
L 221.742342 60.48 
L 221.351351 60.48 
L 220.96036 60.48 
L 220.569369 60.48 
L 220.178378 60.48 
L 219.787387 60.48 
L 219.396396 60.48 
L 219.005405 60.48 
L 218.614414 60.48 
L 218.223423 60.48 
L 217.832432 60.48 
L 217.441441 60.48 
L 217.05045 60.48 
L 216.659459 60.48 
L 216.268468 60.48 
L 215.877477 60.48 
L 215.486486 60.48 
L 215.095495 60.48 
L 214.704505 60.48 
L 214.313514 60.48 
L 213.922523 60.48 
L 213.531532 60.48 
L 213.140541 60.48 
L 212.74955 60.48 
L 212.358559 60.48 
L 211.967568 60.48 
L 211.576577 60.48 
L 211.185586 60.48 
L 210.794595 60.48 
L 210.403604 60.48 
L 210.012613 60.48 
L 209.621622 60.48 
L 209.230631 60.48 
L 208.83964 60.48 
L 208.448649 60.48 
L 208.057658 60.48 
L 207.666667 60.48 
L 207.275676 60.48 
L 206.884685 60.48 
L 206.493694 60.48 
L 206.102703 60.48 
L 205.711712 60.48 
L 205.320721 60.48 
L 204.92973 60.48 
L 204.538739 60.48 
L 204.147748 60.48 
L 203.756757 60.48 
L 203.365766 60.48 
L 202.974775 60.48 
L 202.583784 60.48 
L 202.192793 60.48 
L 201.801802 60.48 
L 201.410811 60.48 
L 201.01982 60.48 
L 200.628829 60.48 
L 200.237838 60.48 
L 199.846847 60.48 
L 199.455856 60.48 
L 199.064865 60.48 
L 198.673874 60.48 
L 198.282883 60.48 
L 197.891892 60.48 
L 197.500901 60.48 
L 197.10991 60.48 
L 196.718919 60.48 
L 196.327928 60.48 
L 195.936937 60.48 
L 195.545946 60.48 
L 195.154955 60.48 
L 194.763964 60.48 
L 194.372973 60.48 
L 193.981982 60.48 
L 193.590991 60.48 
L 193.2 60.48 
L 192.809009 60.48 
L 192.418018 60.48 
L 192.027027 60.48 
L 191.636036 60.48 
L 191.245045 60.48 
L 190.854054 60.48 
L 190.463063 60.48 
L 190.072072 60.48 
L 189.681081 60.48 
L 189.29009 60.48 
L 188.899099 60.48 
L 188.508108 60.48 
L 188.117117 60.48 
L 187.726126 60.48 
L 187.335135 60.48 
L 186.944144 60.48 
L 186.553153 60.48 
L 186.162162 60.48 
L 185.771171 60.48 
L 185.38018 60.48 
L 184.989189 60.48 
L 184.598198 60.48 
L 184.207207 60.48 
L 183.816216 60.48 
L 183.425225 60.48 
L 183.034234 60.48 
L 182.643243 60.48 
L 182.252252 60.48 
L 181.861261 60.48 
L 181.47027 60.48 
L 181.079279 60.48 
L 180.688288 60.48 
L 180.297297 60.48 
L 179.906306 60.48 
L 179.515315 60.48 
L 179.124324 60.48 
L 178.733333 60.48 
L 178.342342 60.48 
L 177.951351 60.48 
L 177.56036 60.48 
L 177.169369 60.48 
L 176.778378 60.48 
L 176.387387 60.48 
L 175.996396 60.48 
L 175.605405 60.48 
L 175.214414 60.48 
L 174.823423 60.48 
L 174.432432 60.48 
L 174.041441 60.48 
L 173.65045 60.48 
L 173.259459 60.48 
L 172.868468 60.48 
L 172.477477 60.48 
L 172.086486 60.48 
L 171.695495 60.48 
L 171.304505 60.48 
L 170.913514 60.48 
L 170.522523 60.48 
L 170.131532 60.48 
L 169.740541 60.48 
L 169.34955 60.48 
L 168.958559 60.48 
L 168.567568 60.48 
L 168.176577 60.48 
L 167.785586 60.48 
L 167.394595 60.48 
L 167.003604 60.48 
L 166.612613 60.48 
L 166.221622 60.48 
L 165.830631 60.48 
L 165.43964 60.48 
L 165.048649 60.48 
L 164.657658 60.48 
L 164.266667 60.48 
L 163.875676 60.48 
L 163.484685 60.48 
L 163.093694 60.48 
L 162.702703 60.48 
L 162.311712 60.48 
L 161.920721 60.48 
L 161.52973 60.48 
L 161.138739 60.48 
L 160.747748 60.48 
L 160.356757 60.48 
L 159.965766 60.48 
L 159.574775 60.48 
L 159.183784 60.48 
L 158.792793 60.48 
L 158.401802 60.48 
L 158.010811 60.48 
L 157.61982 60.48 
L 157.228829 60.48 
L 156.837838 60.48 
L 156.446847 60.48 
L 156.055856 60.48 
L 155.664865 60.48 
L 155.273874 60.48 
L 154.882883 60.48 
L 154.491892 60.48 
L 154.100901 60.48 
L 153.70991 60.48 
L 153.318919 60.48 
L 152.927928 60.48 
L 152.536937 60.48 
L 152.145946 60.48 
L 151.754955 60.48 
L 151.363964 60.48 
L 150.972973 60.48 
L 150.581982 60.48 
L 150.190991 60.48 
L 149.8 60.48 
L 149.409009 60.48 
L 149.018018 60.48 
L 148.627027 60.48 
L 148.236036 60.48 
L 147.845045 60.48 
L 147.454054 60.48 
L 147.063063 60.48 
L 146.672072 60.48 
L 146.281081 60.48 
L 145.89009 60.48 
L 145.499099 60.48 
L 145.108108 60.48 
L 144.717117 60.48 
L 144.326126 60.48 
L 143.935135 60.48 
L 143.544144 60.48 
L 143.153153 60.48 
L 142.762162 60.48 
L 142.371171 60.48 
L 141.98018 60.48 
L 141.589189 60.48 
L 141.198198 60.48 
L 140.807207 60.48 
L 140.416216 60.48 
L 140.025225 60.48 
L 139.634234 60.48 
L 139.243243 60.48 
L 138.852252 60.48 
L 138.461261 60.48 
L 138.07027 60.48 
L 137.679279 60.48 
L 137.288288 60.48 
L 136.897297 60.48 
L 136.506306 60.48 
L 136.115315 60.48 
L 135.724324 60.48 
L 135.333333 60.48 
L 134.942342 60.48 
L 134.551351 60.48 
L 134.16036 60.48 
L 133.769369 60.48 
L 133.378378 60.48 
L 132.987387 60.48 
L 132.596396 60.48 
L 132.205405 60.48 
L 131.814414 60.48 
L 131.423423 60.48 
L 131.032432 60.48 
L 130.641441 60.48 
L 130.25045 60.48 
L 129.859459 60.48 
L 129.468468 60.48 
L 129.077477 60.48 
L 128.686486 60.48 
L 128.295495 60.48 
L 127.904505 60.48 
L 127.513514 60.48 
L 127.122523 60.48 
L 126.731532 60.48 
L 126.340541 60.48 
L 125.94955 60.48 
L 125.558559 60.48 
L 125.167568 60.48 
L 124.776577 60.48 
L 124.385586 60.48 
L 123.994595 60.48 
L 123.603604 60.48 
L 123.212613 60.48 
L 122.821622 60.48 
L 122.430631 60.48 
L 122.03964 60.48 
L 121.648649 60.48 
L 121.257658 60.48 
L 120.866667 60.48 
L 120.475676 60.48 
L 120.084685 60.48 
L 119.693694 60.48 
L 119.302703 60.48 
L 118.911712 60.48 
L 118.520721 60.48 
L 118.12973 60.48 
L 117.738739 60.48 
L 117.347748 60.48 
L 116.956757 60.48 
L 116.565766 60.48 
L 116.174775 60.48 
L 115.783784 60.48 
L 115.392793 60.48 
L 115.001802 60.48 
L 114.610811 60.48 
L 114.21982 60.48 
L 113.828829 60.48 
L 113.437838 60.48 
L 113.046847 60.48 
L 112.655856 60.48 
L 112.264865 60.48 
L 111.873874 60.48 
L 111.482883 60.48 
L 111.091892 60.48 
L 110.700901 60.48 
L 110.30991 60.48 
L 109.918919 60.48 
L 109.527928 60.48 
L 109.136937 60.48 
L 108.745946 60.48 
L 108.354955 60.48 
L 107.963964 60.48 
L 107.572973 60.48 
L 107.181982 60.48 
L 106.790991 60.48 
L 106.4 60.48 
L 106.009009 60.48 
L 105.618018 60.48 
L 105.227027 60.48 
L 104.836036 60.48 
L 104.445045 60.48 
L 104.054054 60.48 
L 103.663063 60.48 
L 103.272072 60.48 
L 102.881081 60.48 
L 102.49009 60.48 
L 102.099099 60.48 
L 101.708108 60.48 
L 101.317117 60.48 
L 100.926126 60.48 
L 100.535135 60.48 
L 100.144144 60.48 
L 99.753153 60.48 
L 99.362162 60.48 
L 98.971171 60.48 
L 98.58018 60.48 
L 98.189189 60.48 
L 97.798198 60.48 
L 97.407207 60.48 
L 97.016216 60.48 
L 96.625225 60.48 
L 96.234234 60.48 
L 95.843243 60.48 
L 95.452252 60.48 
L 95.061261 60.48 
L 94.67027 60.48 
L 94.279279 60.48 
L 93.888288 60.48 
L 93.497297 60.48 
L 93.106306 60.48 
L 92.715315 60.48 
L 92.324324 60.48 
L 91.933333 60.48 
L 91.542342 60.48 
L 91.151351 60.48 
L 90.76036 60.48 
L 90.369369 60.48 
L 89.978378 60.48 
L 89.587387 60.48 
L 89.196396 60.48 
L 88.805405 60.48 
L 88.414414 60.48 
L 88.023423 60.48 
L 87.632432 60.48 
L 87.241441 60.48 
L 86.85045 60.48 
L 86.459459 60.48 
L 86.068468 60.48 
L 85.677477 60.48 
L 85.286486 60.48 
L 84.895495 60.48 
L 84.504505 60.48 
L 84.113514 60.48 
L 83.722523 60.48 
L 83.331532 60.48 
L 82.940541 60.48 
L 82.54955 60.48 
L 82.158559 60.48 
L 81.767568 60.48 
L 81.376577 60.48 
L 80.985586 60.48 
L 80.594595 60.48 
L 80.203604 60.48 
L 79.812613 60.48 
L 79.421622 60.48 
L 79.030631 60.48 
L 78.63964 60.48 
L 78.248649 60.48 
L 77.857658 60.48 
L 77.466667 60.48 
L 77.075676 60.48 
L 76.684685 60.48 
L 76.293694 60.48 
L 75.902703 60.48 
L 75.511712 60.48 
L 75.120721 60.48 
L 74.72973 60.48 
L 74.338739 60.48 
L 73.947748 60.48 
L 73.556757 60.48 
L 73.165766 60.48 
L 72.774775 60.48 
L 72.383784 60.48 
L 71.992793 60.48 
L 71.601802 60.48 
L 71.210811 60.48 
L 70.81982 60.48 
L 70.428829 60.48 
L 70.037838 60.48 
L 69.646847 60.48 
L 69.255856 60.48 
L 68.864865 60.48 
L 68.473874 60.48 
L 68.082883 60.48 
L 67.691892 60.48 
L 67.300901 60.48 
L 66.90991 60.48 
L 66.518919 60.48 
L 66.127928 60.48 
L 65.736937 60.48 
L 65.345946 60.48 
L 64.954955 60.48 
L 64.563964 60.48 
L 64.172973 60.48 
L 63.781982 60.48 
L 63.390991 60.48 
z
" style="fill:#f7b799;"/>
   </g>
   <g id="PolyCollection_2">
    <path clip-path="url(#p621ece8dd2)" d="M 63.390991 62.562769 
L 63.390991 441 
L 63.781982 441 
L 64.172973 441 
L 64.563964 441 
L 64.954955 441 
L 65.345946 441 
L 65.736937 441 
L 66.127928 441 
L 66.518919 441 
L 66.90991 441 
L 67.300901 441 
L 67.691892 441 
L 68.082883 441 
L 68.473874 441 
L 68.864865 441 
L 69.255856 441 
L 69.646847 441 
L 70.037838 441 
L 70.428829 441 
L 70.81982 441 
L 71.210811 441 
L 71.601802 441 
L 71.992793 441 
L 72.383784 441 
L 72.774775 441 
L 73.165766 441 
L 73.556757 441 
L 73.947748 441 
L 74.338739 441 
L 74.72973 441 
L 75.120721 441 
L 75.511712 441 
L 75.902703 441 
L 76.293694 441 
L 76.684685 441 
L 77.075676 441 
L 77.466667 441 
L 77.857658 441 
L 78.248649 441 
L 78.63964 441 
L 79.030631 441 
L 79.421622 441 
L 79.812613 441 
L 80.203604 441 
L 80.594595 441 
L 80.985586 441 
L 81.376577 441 
L 81.767568 441 
L 82.158559 441 
L 82.54955 441 
L 82.940541 441 
L 83.331532 441 
L 83.722523 441 
L 84.113514 441 
L 84.504505 441 
L 84.895495 441 
L 85.286486 441 
L 85.677477 441 
L 86.068468 441 
L 86.459459 441 
L 86.85045 441 
L 87.241441 441 
L 87.632432 441 
L 88.023423 441 
L 88.414414 441 
L 88.805405 441 
L 89.196396 441 
L 89.587387 441 
L 89.978378 441 
L 90.369369 441 
L 90.76036 441 
L 91.151351 441 
L 91.542342 441 
L 91.933333 441 
L 92.324324 441 
L 92.715315 441 
L 93.106306 441 
L 93.497297 441 
L 93.888288 441 
L 94.279279 441 
L 94.67027 441 
L 95.061261 441 
L 95.452252 441 
L 95.843243 441 
L 96.234234 441 
L 96.625225 441 
L 97.016216 441 
L 97.407207 441 
L 97.798198 441 
L 98.189189 441 
L 98.58018 441 
L 98.971171 441 
L 99.362162 441 
L 99.753153 441 
L 100.144144 441 
L 100.535135 441 
L 100.926126 441 
L 101.317117 441 
L 101.708108 441 
L 102.099099 441 
L 102.49009 441 
L 102.881081 441 
L 103.272072 441 
L 103.663063 441 
L 104.054054 441 
L 104.445045 441 
L 104.836036 441 
L 105.227027 441 
L 105.618018 441 
L 106.009009 441 
L 106.4 441 
L 106.790991 441 
L 107.181982 441 
L 107.572973 441 
L 107.963964 441 
L 108.354955 441 
L 108.745946 441 
L 109.136937 441 
L 109.527928 441 
L 109.918919 441 
L 110.30991 441 
L 110.700901 441 
L 111.091892 441 
L 111.482883 441 
L 111.873874 441 
L 112.264865 441 
L 112.655856 441 
L 113.046847 441 
L 113.437838 441 
L 113.828829 441 
L 114.21982 441 
L 114.610811 441 
L 115.001802 441 
L 115.392793 441 
L 115.783784 441 
L 116.174775 441 
L 116.565766 441 
L 116.956757 441 
L 117.347748 441 
L 117.738739 441 
L 118.12973 441 
L 118.520721 441 
L 118.911712 441 
L 119.302703 441 
L 119.693694 441 
L 120.084685 441 
L 120.475676 441 
L 120.866667 441 
L 121.257658 441 
L 121.648649 441 
L 122.03964 441 
L 122.430631 441 
L 122.821622 441 
L 123.212613 441 
L 123.603604 441 
L 123.994595 441 
L 124.385586 441 
L 124.776577 441 
L 125.167568 441 
L 125.558559 441 
L 125.94955 441 
L 126.340541 441 
L 126.731532 441 
L 127.122523 441 
L 127.513514 441 
L 127.904505 441 
L 128.295495 441 
L 128.686486 441 
L 129.077477 441 
L 129.468468 441 
L 129.859459 441 
L 130.25045 441 
L 130.641441 441 
L 131.032432 441 
L 131.423423 441 
L 131.814414 441 
L 132.205405 441 
L 132.596396 441 
L 132.987387 441 
L 133.378378 441 
L 133.769369 441 
L 134.16036 441 
L 134.551351 441 
L 134.942342 441 
L 135.333333 441 
L 135.724324 441 
L 136.115315 441 
L 136.506306 441 
L 136.897297 441 
L 137.288288 441 
L 137.679279 441 
L 138.07027 441 
L 138.461261 441 
L 138.852252 441 
L 139.243243 441 
L 139.634234 441 
L 140.025225 441 
L 140.416216 441 
L 140.807207 441 
L 141.198198 441 
L 141.589189 441 
L 141.98018 441 
L 142.371171 441 
L 142.762162 441 
L 143.153153 441 
L 143.544144 441 
L 143.935135 441 
L 144.326126 441 
L 144.717117 441 
L 145.108108 441 
L 145.499099 441 
L 145.89009 441 
L 146.281081 441 
L 146.672072 441 
L 147.063063 441 
L 147.454054 441 
L 147.845045 441 
L 148.236036 441 
L 148.627027 441 
L 149.018018 441 
L 149.409009 441 
L 149.8 441 
L 150.190991 441 
L 150.581982 441 
L 150.972973 441 
L 151.363964 441 
L 151.754955 441 
L 152.145946 441 
L 152.536937 441 
L 152.927928 441 
L 153.318919 441 
L 153.70991 441 
L 154.100901 441 
L 154.491892 441 
L 154.882883 441 
L 155.273874 441 
L 155.664865 441 
L 156.055856 441 
L 156.446847 441 
L 156.837838 441 
L 157.228829 441 
L 157.61982 441 
L 158.010811 441 
L 158.401802 441 
L 158.792793 441 
L 159.183784 441 
L 159.574775 441 
L 159.965766 441 
L 160.356757 441 
L 160.747748 441 
L 161.138739 441 
L 161.52973 441 
L 161.920721 441 
L 162.311712 441 
L 162.702703 441 
L 163.093694 441 
L 163.484685 441 
L 163.875676 441 
L 164.266667 441 
L 164.657658 441 
L 165.048649 441 
L 165.43964 441 
L 165.830631 441 
L 166.221622 441 
L 166.612613 441 
L 167.003604 441 
L 167.394595 441 
L 167.785586 441 
L 168.176577 441 
L 168.567568 441 
L 168.958559 441 
L 169.34955 441 
L 169.740541 441 
L 170.131532 441 
L 170.522523 441 
L 170.913514 441 
L 171.304505 441 
L 171.695495 441 
L 172.086486 441 
L 172.477477 441 
L 172.868468 441 
L 173.259459 441 
L 173.65045 441 
L 174.041441 441 
L 174.432432 441 
L 174.823423 441 
L 175.214414 441 
L 175.605405 441 
L 175.996396 441 
L 176.387387 441 
L 176.778378 441 
L 177.169369 441 
L 177.56036 441 
L 177.951351 441 
L 178.342342 441 
L 178.733333 441 
L 179.124324 441 
L 179.515315 441 
L 179.906306 441 
L 180.297297 441 
L 180.688288 441 
L 181.079279 441 
L 181.47027 441 
L 181.861261 441 
L 182.252252 441 
L 182.643243 441 
L 183.034234 441 
L 183.425225 441 
L 183.816216 441 
L 184.207207 441 
L 184.598198 441 
L 184.989189 441 
L 185.38018 441 
L 185.771171 441 
L 186.162162 441 
L 186.553153 441 
L 186.944144 441 
L 187.335135 441 
L 187.726126 441 
L 188.117117 441 
L 188.508108 441 
L 188.899099 441 
L 189.29009 441 
L 189.681081 441 
L 190.072072 441 
L 190.463063 441 
L 190.854054 441 
L 191.245045 441 
L 191.636036 441 
L 192.027027 441 
L 192.418018 441 
L 192.809009 441 
L 193.2 441 
L 193.590991 441 
L 193.981982 441 
L 194.372973 441 
L 194.763964 441 
L 195.154955 441 
L 195.545946 441 
L 195.936937 441 
L 196.327928 441 
L 196.718919 441 
L 197.10991 441 
L 197.500901 441 
L 197.891892 441 
L 198.282883 441 
L 198.673874 441 
L 199.064865 441 
L 199.455856 441 
L 199.846847 441 
L 200.237838 441 
L 200.628829 441 
L 201.01982 441 
L 201.410811 441 
L 201.801802 441 
L 202.192793 441 
L 202.583784 441 
L 202.974775 441 
L 203.365766 441 
L 203.756757 441 
L 204.147748 441 
L 204.538739 441 
L 204.92973 441 
L 205.320721 441 
L 205.711712 441 
L 206.102703 441 
L 206.493694 441 
L 206.884685 441 
L 207.275676 441 
L 207.666667 441 
L 208.057658 441 
L 208.448649 441 
L 208.83964 441 
L 209.230631 441 
L 209.621622 441 
L 210.012613 441 
L 210.403604 441 
L 210.794595 441 
L 211.185586 441 
L 211.576577 441 
L 211.967568 441 
L 212.358559 441 
L 212.74955 441 
L 213.140541 441 
L 213.531532 441 
L 213.922523 441 
L 214.313514 441 
L 214.704505 441 
L 215.095495 441 
L 215.486486 441 
L 215.877477 441 
L 216.268468 441 
L 216.659459 441 
L 217.05045 441 
L 217.441441 441 
L 217.832432 441 
L 218.223423 441 
L 218.614414 441 
L 219.005405 441 
L 219.396396 441 
L 219.787387 441 
L 220.178378 441 
L 220.569369 441 
L 220.96036 441 
L 221.351351 441 
L 221.742342 441 
L 222.133333 441 
L 222.524324 441 
L 222.915315 441 
L 223.306306 441 
L 223.697297 441 
L 224.088288 441 
L 224.479279 441 
L 224.87027 441 
L 225.261261 441 
L 225.652252 441 
L 226.043243 441 
L 226.434234 441 
L 226.825225 441 
L 227.216216 441 
L 227.607207 441 
L 227.998198 441 
L 228.389189 441 
L 228.78018 441 
L 229.171171 441 
L 229.562162 441 
L 229.953153 441 
L 230.344144 441 
L 230.735135 441 
L 231.126126 441 
L 231.517117 441 
L 231.908108 441 
L 232.299099 441 
L 232.69009 441 
L 233.081081 441 
L 233.472072 441 
L 233.863063 441 
L 234.254054 441 
L 234.645045 441 
L 235.036036 441 
L 235.427027 441 
L 235.818018 441 
L 236.209009 441 
L 236.6 441 
L 236.990991 441 
L 237.381982 441 
L 237.772973 441 
L 238.163964 441 
L 238.554955 441 
L 238.945946 441 
L 239.336937 441 
L 239.727928 441 
L 240.118919 441 
L 240.50991 441 
L 240.900901 441 
L 241.291892 441 
L 241.682883 441 
L 242.073874 441 
L 242.464865 441 
L 242.855856 441 
L 243.246847 441 
L 243.637838 441 
L 244.028829 441 
L 244.41982 441 
L 244.810811 441 
L 245.201802 441 
L 245.592793 441 
L 245.983784 441 
L 246.374775 441 
L 246.765766 441 
L 247.156757 441 
L 247.547748 441 
L 247.938739 441 
L 248.32973 441 
L 248.720721 441 
L 249.111712 441 
L 249.502703 441 
L 249.893694 441 
L 250.284685 441 
L 250.675676 441 
L 251.066667 441 
L 251.457658 441 
L 251.848649 441 
L 252.23964 441 
L 252.630631 441 
L 253.021622 441 
L 253.412613 441 
L 253.803604 441 
L 254.194595 441 
L 254.585586 441 
L 254.976577 441 
L 255.367568 441 
L 255.758559 441 
L 256.14955 441 
L 256.540541 441 
L 256.931532 441 
L 257.322523 441 
L 257.713514 441 
L 258.104505 441 
L 258.495495 441 
L 258.886486 441 
L 259.277477 441 
L 259.668468 441 
L 260.059459 441 
L 260.45045 441 
L 260.841441 441 
L 261.232432 441 
L 261.623423 441 
L 262.014414 441 
L 262.405405 441 
L 262.796396 441 
L 263.187387 441 
L 263.578378 441 
L 263.969369 441 
L 264.36036 441 
L 264.751351 441 
L 265.142342 441 
L 265.533333 441 
L 265.924324 441 
L 266.315315 441 
L 266.706306 441 
L 267.097297 441 
L 267.488288 441 
L 267.879279 441 
L 268.27027 441 
L 268.661261 441 
L 269.052252 441 
L 269.443243 441 
L 269.834234 441 
L 270.225225 441 
L 270.616216 441 
L 271.007207 441 
L 271.398198 441 
L 271.789189 441 
L 272.18018 441 
L 272.571171 441 
L 272.962162 441 
L 273.353153 441 
L 273.744144 441 
L 274.135135 441 
L 274.526126 441 
L 274.917117 441 
L 275.308108 441 
L 275.699099 441 
L 276.09009 441 
L 276.481081 441 
L 276.872072 441 
L 277.263063 441 
L 277.654054 441 
L 278.045045 441 
L 278.436036 441 
L 278.827027 441 
L 279.218018 441 
L 279.609009 441 
L 280 441 
L 280.390991 441 
L 280.781982 441 
L 281.172973 441 
L 281.563964 441 
L 281.954955 441 
L 282.345946 441 
L 282.736937 441 
L 283.127928 441 
L 283.518919 441 
L 283.90991 441 
L 284.300901 441 
L 284.691892 441 
L 285.082883 441 
L 285.473874 441 
L 285.864865 441 
L 286.255856 441 
L 286.646847 441 
L 287.037838 441 
L 287.428829 441 
L 287.81982 441 
L 288.210811 441 
L 288.601802 441 
L 288.992793 441 
L 289.383784 441 
L 289.774775 441 
L 290.165766 441 
L 290.556757 441 
L 290.947748 441 
L 291.338739 441 
L 291.72973 441 
L 292.120721 441 
L 292.511712 441 
L 292.902703 441 
L 293.293694 441 
L 293.684685 441 
L 294.075676 441 
L 294.466667 441 
L 294.857658 441 
L 295.248649 441 
L 295.63964 441 
L 296.030631 441 
L 296.421622 441 
L 296.812613 441 
L 297.203604 441 
L 297.594595 441 
L 297.985586 441 
L 298.376577 441 
L 298.767568 441 
L 299.158559 441 
L 299.54955 441 
L 299.940541 441 
L 300.331532 441 
L 300.722523 441 
L 301.113514 441 
L 301.504505 441 
L 301.895495 441 
L 302.286486 441 
L 302.677477 441 
L 303.068468 441 
L 303.459459 441 
L 303.85045 441 
L 304.241441 441 
L 304.632432 441 
L 305.023423 441 
L 305.414414 441 
L 305.805405 441 
L 306.196396 441 
L 306.587387 441 
L 306.978378 441 
L 307.369369 441 
L 307.76036 441 
L 308.151351 441 
L 308.542342 441 
L 308.933333 441 
L 309.324324 441 
L 309.715315 441 
L 310.106306 441 
L 310.497297 441 
L 310.888288 441 
L 311.279279 441 
L 311.67027 441 
L 312.061261 441 
L 312.452252 441 
L 312.843243 441 
L 313.234234 441 
L 313.625225 441 
L 314.016216 441 
L 314.407207 441 
L 314.798198 441 
L 315.189189 441 
L 315.58018 441 
L 315.971171 441 
L 316.362162 441 
L 316.753153 441 
L 317.144144 441 
L 317.535135 441 
L 317.926126 441 
L 318.317117 441 
L 318.708108 441 
L 319.099099 441 
L 319.49009 441 
L 319.881081 441 
L 320.272072 441 
L 320.663063 441 
L 321.054054 441 
L 321.445045 441 
L 321.836036 441 
L 322.227027 441 
L 322.618018 441 
L 323.009009 441 
L 323.4 441 
L 323.790991 441 
L 324.181982 441 
L 324.572973 441 
L 324.963964 441 
L 325.354955 441 
L 325.745946 441 
L 326.136937 441 
L 326.527928 441 
L 326.918919 441 
L 327.30991 441 
L 327.700901 441 
L 328.091892 441 
L 328.482883 441 
L 328.873874 441 
L 329.264865 441 
L 329.655856 441 
L 330.046847 441 
L 330.437838 441 
L 330.828829 441 
L 331.21982 441 
L 331.610811 441 
L 332.001802 441 
L 332.392793 441 
L 332.783784 441 
L 333.174775 441 
L 333.565766 441 
L 333.956757 441 
L 334.347748 441 
L 334.738739 441 
L 335.12973 441 
L 335.520721 441 
L 335.911712 441 
L 336.302703 441 
L 336.693694 441 
L 337.084685 441 
L 337.475676 441 
L 337.866667 441 
L 338.257658 441 
L 338.648649 441 
L 339.03964 441 
L 339.430631 441 
L 339.821622 441 
L 340.212613 441 
L 340.603604 441 
L 340.994595 441 
L 341.385586 441 
L 341.776577 441 
L 342.167568 441 
L 342.558559 441 
L 342.94955 441 
L 343.340541 441 
L 343.731532 441 
L 344.122523 441 
L 344.513514 441 
L 344.904505 441 
L 345.295495 441 
L 345.686486 441 
L 346.077477 441 
L 346.468468 441 
L 346.859459 441 
L 347.25045 441 
L 347.641441 441 
L 348.032432 441 
L 348.423423 441 
L 348.814414 441 
L 349.205405 441 
L 349.596396 441 
L 349.987387 441 
L 350.378378 441 
L 350.769369 441 
L 351.16036 441 
L 351.551351 441 
L 351.942342 441 
L 352.333333 441 
L 352.724324 441 
L 353.115315 441 
L 353.506306 441 
L 353.897297 441 
L 354.288288 441 
L 354.679279 441 
L 355.07027 441 
L 355.461261 441 
L 355.852252 441 
L 356.243243 441 
L 356.634234 441 
L 357.025225 441 
L 357.416216 441 
L 357.807207 441 
L 358.198198 441 
L 358.589189 441 
L 358.98018 441 
L 359.371171 441 
L 359.762162 441 
L 360.153153 441 
L 360.544144 441 
L 360.935135 441 
L 361.326126 441 
L 361.717117 441 
L 362.108108 441 
L 362.499099 441 
L 362.89009 441 
L 363.281081 441 
L 363.672072 441 
L 364.063063 441 
L 364.454054 441 
L 364.845045 441 
L 365.236036 441 
L 365.627027 441 
L 366.018018 441 
L 366.409009 441 
L 366.8 441 
L 367.190991 441 
L 367.581982 441 
L 367.972973 441 
L 368.363964 441 
L 368.754955 441 
L 369.145946 441 
L 369.536937 441 
L 369.927928 441 
L 370.318919 441 
L 370.70991 441 
L 371.100901 441 
L 371.491892 441 
L 371.882883 441 
L 372.273874 441 
L 372.664865 441 
L 373.055856 441 
L 373.446847 441 
L 373.837838 441 
L 374.228829 441 
L 374.61982 441 
L 375.010811 441 
L 375.401802 441 
L 375.792793 441 
L 376.183784 441 
L 376.574775 441 
L 376.965766 441 
L 377.356757 441 
L 377.747748 441 
L 378.138739 441 
L 378.52973 441 
L 378.920721 441 
L 379.311712 441 
L 379.702703 441 
L 380.093694 441 
L 380.484685 441 
L 380.875676 441 
L 381.266667 441 
L 381.657658 441 
L 382.048649 441 
L 382.43964 441 
L 382.830631 441 
L 383.221622 441 
L 383.612613 441 
L 384.003604 441 
L 384.394595 441 
L 384.785586 441 
L 385.176577 441 
L 385.567568 441 
L 385.958559 441 
L 386.34955 441 
L 386.740541 441 
L 387.131532 441 
L 387.522523 441 
L 387.913514 441 
L 388.304505 441 
L 388.695495 441 
L 389.086486 441 
L 389.477477 441 
L 389.868468 441 
L 390.259459 441 
L 390.65045 441 
L 391.041441 441 
L 391.432432 441 
L 391.823423 441 
L 392.214414 441 
L 392.605405 441 
L 392.996396 441 
L 393.387387 441 
L 393.778378 441 
L 394.169369 441 
L 394.56036 441 
L 394.951351 441 
L 395.342342 441 
L 395.733333 441 
L 396.124324 441 
L 396.515315 441 
L 396.906306 441 
L 397.297297 441 
L 397.688288 441 
L 398.079279 441 
L 398.47027 441 
L 398.861261 441 
L 399.252252 441 
L 399.643243 441 
L 400.034234 441 
L 400.425225 441 
L 400.816216 441 
L 401.207207 441 
L 401.598198 441 
L 401.989189 441 
L 402.38018 441 
L 402.771171 441 
L 403.162162 441 
L 403.553153 441 
L 403.944144 441 
L 404.335135 441 
L 404.726126 441 
L 405.117117 441 
L 405.508108 441 
L 405.899099 441 
L 406.29009 441 
L 406.681081 441 
L 407.072072 441 
L 407.463063 441 
L 407.854054 441 
L 408.245045 441 
L 408.636036 441 
L 409.027027 441 
L 409.418018 441 
L 409.809009 441 
L 410.2 441 
L 410.590991 441 
L 410.981982 441 
L 411.372973 441 
L 411.763964 441 
L 412.154955 441 
L 412.545946 441 
L 412.936937 441 
L 413.327928 441 
L 413.718919 441 
L 414.10991 441 
L 414.500901 441 
L 414.891892 441 
L 415.282883 441 
L 415.673874 441 
L 416.064865 441 
L 416.455856 441 
L 416.846847 441 
L 417.237838 441 
L 417.628829 441 
L 418.01982 441 
L 418.410811 441 
L 418.801802 441 
L 419.192793 441 
L 419.583784 441 
L 419.974775 441 
L 420.365766 441 
L 420.756757 441 
L 421.147748 441 
L 421.538739 441 
L 421.92973 441 
L 422.320721 441 
L 422.711712 441 
L 423.102703 441 
L 423.493694 441 
L 423.884685 441 
L 424.275676 441 
L 424.666667 441 
L 425.057658 441 
L 425.448649 441 
L 425.83964 441 
L 426.230631 441 
L 426.621622 441 
L 427.012613 441 
L 427.403604 441 
L 427.794595 441 
L 428.185586 441 
L 428.576577 441 
L 428.967568 441 
L 429.358559 441 
L 429.74955 441 
L 430.140541 441 
L 430.531532 441 
L 430.922523 441 
L 431.313514 441 
L 431.704505 441 
L 432.095495 441 
L 432.486486 441 
L 432.877477 441 
L 433.268468 441 
L 433.659459 441 
L 434.05045 441 
L 434.441441 441 
L 434.832432 441 
L 435.223423 441 
L 435.614414 441 
L 436.005405 441 
L 436.396396 441 
L 436.787387 441 
L 437.178378 441 
L 437.569369 441 
L 437.96036 441 
L 438.351351 441 
L 438.742342 441 
L 439.133333 441 
L 439.524324 441 
L 439.915315 441 
L 440.306306 441 
L 440.697297 441 
L 441.088288 441 
L 441.479279 441 
L 441.87027 441 
L 442.261261 441 
L 442.652252 441 
L 443.043243 441 
L 443.434234 441 
L 443.825225 441 
L 444.216216 441 
L 444.607207 441 
L 444.998198 441 
L 445.389189 441 
L 445.78018 441 
L 446.171171 441 
L 446.562162 441 
L 446.953153 441 
L 447.344144 441 
L 447.735135 441 
L 448.126126 441 
L 448.517117 441 
L 448.908108 441 
L 449.299099 441 
L 449.69009 441 
L 450.081081 441 
L 450.472072 441 
L 450.863063 441 
L 451.254054 441 
L 451.645045 441 
L 452.036036 441 
L 452.427027 441 
L 452.818018 441 
L 453.209009 441 
L 453.6 441 
L 453.6 441 
L 453.6 441 
L 453.209009 440.851288 
L 452.818018 440.702909 
L 452.427027 440.554857 
L 452.036036 440.407124 
L 451.645045 440.259705 
L 451.254054 440.112592 
L 450.863063 439.965779 
L 450.472072 439.819261 
L 450.081081 439.673031 
L 449.69009 439.527084 
L 449.299099 439.381413 
L 448.908108 439.236014 
L 448.517117 439.09088 
L 448.126126 438.946006 
L 447.735135 438.801387 
L 447.344144 438.657018 
L 446.953153 438.512894 
L 446.562162 438.369009 
L 446.171171 438.225359 
L 445.78018 438.081939 
L 445.389189 437.938744 
L 444.998198 437.79577 
L 444.607207 437.653012 
L 444.216216 437.510466 
L 443.825225 437.368128 
L 443.434234 437.225992 
L 443.043243 437.084056 
L 442.652252 436.942314 
L 442.261261 436.800763 
L 441.87027 436.659399 
L 441.479279 436.518218 
L 441.088288 436.377216 
L 440.697297 436.236389 
L 440.306306 436.095733 
L 439.915315 435.955246 
L 439.524324 435.814923 
L 439.133333 435.674761 
L 438.742342 435.534756 
L 438.351351 435.394905 
L 437.96036 435.255205 
L 437.569369 435.115652 
L 437.178378 434.976243 
L 436.787387 434.836975 
L 436.396396 434.697845 
L 436.005405 434.558849 
L 435.614414 434.419985 
L 435.223423 434.281249 
L 434.832432 434.142639 
L 434.441441 434.004152 
L 434.05045 433.865785 
L 433.659459 433.727534 
L 433.268468 433.589398 
L 432.877477 433.451373 
L 432.486486 433.313457 
L 432.095495 433.175647 
L 431.704505 433.03794 
L 431.313514 432.900334 
L 430.922523 432.762827 
L 430.531532 432.625415 
L 430.140541 432.488096 
L 429.74955 432.350869 
L 429.358559 432.213729 
L 428.967568 432.076676 
L 428.576577 431.939706 
L 428.185586 431.802818 
L 427.794595 431.666008 
L 427.403604 431.529275 
L 427.012613 431.392617 
L 426.621622 431.256031 
L 426.230631 431.119515 
L 425.83964 430.983067 
L 425.448649 430.846685 
L 425.057658 430.710366 
L 424.666667 430.574109 
L 424.275676 430.437912 
L 423.884685 430.301772 
L 423.493694 430.165687 
L 423.102703 430.029656 
L 422.711712 429.893676 
L 422.320721 429.757747 
L 421.92973 429.621864 
L 421.538739 429.486028 
L 421.147748 429.350235 
L 420.756757 429.214485 
L 420.365766 429.078774 
L 419.974775 428.943102 
L 419.583784 428.807467 
L 419.192793 428.671866 
L 418.801802 428.536299 
L 418.410811 428.400762 
L 418.01982 428.265256 
L 417.628829 428.129777 
L 417.237838 427.994324 
L 416.846847 427.858896 
L 416.455856 427.723491 
L 416.064865 427.588106 
L 415.673874 427.452742 
L 415.282883 427.317395 
L 414.891892 427.182065 
L 414.500901 427.04675 
L 414.10991 426.911448 
L 413.718919 426.776157 
L 413.327928 426.640877 
L 412.936937 426.505605 
L 412.545946 426.370341 
L 412.154955 426.235082 
L 411.763964 426.099827 
L 411.372973 425.964575 
L 410.981982 425.829324 
L 410.590991 425.694073 
L 410.2 425.55882 
L 409.809009 425.423564 
L 409.418018 425.288304 
L 409.027027 425.153038 
L 408.636036 425.017764 
L 408.245045 424.882482 
L 407.854054 424.74719 
L 407.463063 424.611887 
L 407.072072 424.476571 
L 406.681081 424.341241 
L 406.29009 424.205895 
L 405.899099 424.070533 
L 405.508108 423.935153 
L 405.117117 423.799754 
L 404.726126 423.664334 
L 404.335135 423.528892 
L 403.944144 423.393427 
L 403.553153 423.257938 
L 403.162162 423.122424 
L 402.771171 422.986882 
L 402.38018 422.851313 
L 401.989189 422.715714 
L 401.598198 422.580085 
L 401.207207 422.444424 
L 400.816216 422.30873 
L 400.425225 422.173002 
L 400.034234 422.037239 
L 399.643243 421.901439 
L 399.252252 421.765602 
L 398.861261 421.629726 
L 398.47027 421.493811 
L 398.079279 421.357854 
L 397.688288 421.221855 
L 397.297297 421.085812 
L 396.906306 420.949725 
L 396.515315 420.813593 
L 396.124324 420.677414 
L 395.733333 420.541187 
L 395.342342 420.404911 
L 394.951351 420.268585 
L 394.56036 420.132208 
L 394.169369 419.995779 
L 393.778378 419.859296 
L 393.387387 419.72276 
L 392.996396 419.586167 
L 392.605405 419.449519 
L 392.214414 419.312813 
L 391.823423 419.176048 
L 391.432432 419.039223 
L 391.041441 418.902338 
L 390.65045 418.765392 
L 390.259459 418.628382 
L 389.868468 418.491309 
L 389.477477 418.354171 
L 389.086486 418.216967 
L 388.695495 418.079696 
L 388.304505 417.942358 
L 387.913514 417.80495 
L 387.522523 417.667473 
L 387.131532 417.529925 
L 386.740541 417.392305 
L 386.34955 417.254612 
L 385.958559 417.116846 
L 385.567568 416.979004 
L 385.176577 416.841087 
L 384.785586 416.703093 
L 384.394595 416.565021 
L 384.003604 416.426871 
L 383.612613 416.28864 
L 383.221622 416.15033 
L 382.830631 416.011937 
L 382.43964 415.873462 
L 382.048649 415.734904 
L 381.657658 415.596261 
L 381.266667 415.457533 
L 380.875676 415.318718 
L 380.484685 415.179816 
L 380.093694 415.040826 
L 379.702703 414.901746 
L 379.311712 414.762577 
L 378.920721 414.623316 
L 378.52973 414.483964 
L 378.138739 414.344518 
L 377.747748 414.204979 
L 377.356757 414.065345 
L 376.965766 413.925615 
L 376.574775 413.785789 
L 376.183784 413.645866 
L 375.792793 413.505843 
L 375.401802 413.365722 
L 375.010811 413.2255 
L 374.61982 413.085178 
L 374.228829 412.944753 
L 373.837838 412.804225 
L 373.446847 412.663593 
L 373.055856 412.522857 
L 372.664865 412.382015 
L 372.273874 412.241066 
L 371.882883 412.10001 
L 371.491892 411.958846 
L 371.100901 411.817572 
L 370.70991 411.676189 
L 370.318919 411.534694 
L 369.927928 411.393088 
L 369.536937 411.251368 
L 369.145946 411.109535 
L 368.754955 410.967588 
L 368.363964 410.825525 
L 367.972973 410.683346 
L 367.581982 410.541049 
L 367.190991 410.398635 
L 366.8 410.256101 
L 366.409009 410.113448 
L 366.018018 409.970674 
L 365.627027 409.827778 
L 365.236036 409.68476 
L 364.845045 409.541619 
L 364.454054 409.398353 
L 364.063063 409.254963 
L 363.672072 409.111446 
L 363.281081 408.967803 
L 362.89009 408.824032 
L 362.499099 408.680132 
L 362.108108 408.536103 
L 361.717117 408.391944 
L 361.326126 408.247653 
L 360.935135 408.10323 
L 360.544144 407.958675 
L 360.153153 407.813986 
L 359.762162 407.669162 
L 359.371171 407.524202 
L 358.98018 407.379107 
L 358.589189 407.233874 
L 358.198198 407.088503 
L 357.807207 406.942992 
L 357.416216 406.797342 
L 357.025225 406.651552 
L 356.634234 406.50562 
L 356.243243 406.359545 
L 355.852252 406.213327 
L 355.461261 406.066965 
L 355.07027 405.920458 
L 354.679279 405.773805 
L 354.288288 405.627005 
L 353.897297 405.480057 
L 353.506306 405.332961 
L 353.115315 405.185716 
L 352.724324 405.03832 
L 352.333333 404.890773 
L 351.942342 404.743074 
L 351.551351 404.595223 
L 351.16036 404.447217 
L 350.769369 404.299057 
L 350.378378 404.150742 
L 349.987387 404.00227 
L 349.596396 403.853641 
L 349.205405 403.704854 
L 348.814414 403.555908 
L 348.423423 403.406802 
L 348.032432 403.257536 
L 347.641441 403.108107 
L 347.25045 402.958517 
L 346.859459 402.808763 
L 346.468468 402.658845 
L 346.077477 402.508761 
L 345.686486 402.358512 
L 345.295495 402.208096 
L 344.904505 402.057512 
L 344.513514 401.906759 
L 344.122523 401.755837 
L 343.731532 401.604745 
L 343.340541 401.453481 
L 342.94955 401.302046 
L 342.558559 401.150437 
L 342.167568 400.998654 
L 341.776577 400.846696 
L 341.385586 400.694563 
L 340.994595 400.542253 
L 340.603604 400.389765 
L 340.212613 400.237099 
L 339.821622 400.084254 
L 339.430631 399.931228 
L 339.03964 399.778022 
L 338.648649 399.624633 
L 338.257658 399.471062 
L 337.866667 399.317307 
L 337.475676 399.163367 
L 337.084685 399.009241 
L 336.693694 398.854929 
L 336.302703 398.700429 
L 335.911712 398.545741 
L 335.520721 398.390864 
L 335.12973 398.235797 
L 334.738739 398.080538 
L 334.347748 397.925088 
L 333.956757 397.769444 
L 333.565766 397.613607 
L 333.174775 397.457575 
L 332.783784 397.301347 
L 332.392793 397.144922 
L 332.001802 396.9883 
L 331.610811 396.83148 
L 331.21982 396.67446 
L 330.828829 396.51724 
L 330.437838 396.359818 
L 330.046847 396.202194 
L 329.655856 396.044367 
L 329.264865 395.886336 
L 328.873874 395.7281 
L 328.482883 395.569657 
L 328.091892 395.411008 
L 327.700901 395.252151 
L 327.30991 395.093085 
L 326.918919 394.933809 
L 326.527928 394.774322 
L 326.136937 394.614624 
L 325.745946 394.454713 
L 325.354955 394.294588 
L 324.963964 394.134248 
L 324.572973 393.973693 
L 324.181982 393.812921 
L 323.790991 393.651932 
L 323.4 393.490724 
L 323.009009 393.329297 
L 322.618018 393.167649 
L 322.227027 393.00578 
L 321.836036 392.843688 
L 321.445045 392.681372 
L 321.054054 392.518833 
L 320.663063 392.356067 
L 320.272072 392.193075 
L 319.881081 392.029856 
L 319.49009 391.866408 
L 319.099099 391.702731 
L 318.708108 391.538824 
L 318.317117 391.374684 
L 317.926126 391.210313 
L 317.535135 391.045707 
L 317.144144 390.880867 
L 316.753153 390.715792 
L 316.362162 390.55048 
L 315.971171 390.38493 
L 315.58018 390.219142 
L 315.189189 390.053114 
L 314.798198 389.886845 
L 314.407207 389.720334 
L 314.016216 389.55358 
L 313.625225 389.386583 
L 313.234234 389.219341 
L 312.843243 389.051852 
L 312.452252 388.884117 
L 312.061261 388.716133 
L 311.67027 388.5479 
L 311.279279 388.379417 
L 310.888288 388.210682 
L 310.497297 388.041695 
L 310.106306 387.872455 
L 309.715315 387.70296 
L 309.324324 387.533209 
L 308.933333 387.363202 
L 308.542342 387.192936 
L 308.151351 387.022412 
L 307.76036 386.851628 
L 307.369369 386.680582 
L 306.978378 386.509274 
L 306.587387 386.337703 
L 306.196396 386.165867 
L 305.805405 385.993766 
L 305.414414 385.821398 
L 305.023423 385.648762 
L 304.632432 385.475857 
L 304.241441 385.302681 
L 303.85045 385.129235 
L 303.459459 384.955516 
L 303.068468 384.781523 
L 302.677477 384.607256 
L 302.286486 384.432713 
L 301.895495 384.257892 
L 301.504505 384.082794 
L 301.113514 383.907416 
L 300.722523 383.731757 
L 300.331532 383.555817 
L 299.940541 383.379594 
L 299.54955 383.203086 
L 299.158559 383.026293 
L 298.767568 382.849214 
L 298.376577 382.671847 
L 297.985586 382.494191 
L 297.594595 382.316245 
L 297.203604 382.138008 
L 296.812613 381.959478 
L 296.421622 381.780654 
L 296.030631 381.601535 
L 295.63964 381.42212 
L 295.248649 381.242407 
L 294.857658 381.062396 
L 294.466667 380.882085 
L 294.075676 380.701472 
L 293.684685 380.520557 
L 293.293694 380.339338 
L 292.902703 380.157814 
L 292.511712 379.975984 
L 292.120721 379.793846 
L 291.72973 379.6114 
L 291.338739 379.428643 
L 290.947748 379.245575 
L 290.556757 379.062194 
L 290.165766 378.878498 
L 289.774775 378.694488 
L 289.383784 378.510161 
L 288.992793 378.325516 
L 288.601802 378.140551 
L 288.210811 377.955266 
L 287.81982 377.769659 
L 287.428829 377.583728 
L 287.037838 377.397473 
L 286.646847 377.210892 
L 286.255856 377.023983 
L 285.864865 376.836746 
L 285.473874 376.649178 
L 285.082883 376.461279 
L 284.691892 376.273047 
L 284.300901 376.084481 
L 283.90991 375.895579 
L 283.518919 375.70634 
L 283.127928 375.516763 
L 282.736937 375.326845 
L 282.345946 375.136586 
L 281.954955 374.945985 
L 281.563964 374.755039 
L 281.172973 374.563748 
L 280.781982 374.372109 
L 280.390991 374.180122 
L 280 373.987785 
L 279.609009 373.795097 
L 279.218018 373.602056 
L 278.827027 373.40866 
L 278.436036 373.214909 
L 278.045045 373.0208 
L 277.654054 372.826332 
L 277.263063 372.631504 
L 276.872072 372.436314 
L 276.481081 372.24076 
L 276.09009 372.044842 
L 275.699099 371.848557 
L 275.308108 371.651904 
L 274.917117 371.454882 
L 274.526126 371.257489 
L 274.135135 371.059723 
L 273.744144 370.861582 
L 273.353153 370.663066 
L 272.962162 370.464173 
L 272.571171 370.2649 
L 272.18018 370.065247 
L 271.789189 369.865212 
L 271.398198 369.664793 
L 271.007207 369.463989 
L 270.616216 369.262798 
L 270.225225 369.061218 
L 269.834234 368.859247 
L 269.443243 368.656885 
L 269.052252 368.454129 
L 268.661261 368.250978 
L 268.27027 368.04743 
L 267.879279 367.843483 
L 267.488288 367.639136 
L 267.097297 367.434387 
L 266.706306 367.229234 
L 266.315315 367.023676 
L 265.924324 366.81771 
L 265.533333 366.611336 
L 265.142342 366.404551 
L 264.751351 366.197353 
L 264.36036 365.989742 
L 263.969369 365.781714 
L 263.578378 365.573269 
L 263.187387 365.364404 
L 262.796396 365.155118 
L 262.405405 364.945409 
L 262.014414 364.735275 
L 261.623423 364.524714 
L 261.232432 364.313724 
L 260.841441 364.102305 
L 260.45045 363.890453 
L 260.059459 363.678166 
L 259.668468 363.465444 
L 259.277477 363.252284 
L 258.886486 363.038685 
L 258.495495 362.824643 
L 258.104505 362.610159 
L 257.713514 362.395228 
L 257.322523 362.179851 
L 256.931532 361.964024 
L 256.540541 361.747745 
L 256.14955 361.531014 
L 255.758559 361.313827 
L 255.367568 361.096183 
L 254.976577 360.87808 
L 254.585586 360.659516 
L 254.194595 360.440489 
L 253.803604 360.220996 
L 253.412613 360.001036 
L 253.021622 359.780607 
L 252.630631 359.559707 
L 252.23964 359.338333 
L 251.848649 359.116484 
L 251.457658 358.894157 
L 251.066667 358.671351 
L 250.675676 358.448063 
L 250.284685 358.224291 
L 249.893694 358.000033 
L 249.502703 357.775287 
L 249.111712 357.550051 
L 248.720721 357.324322 
L 248.32973 357.098099 
L 247.938739 356.871379 
L 247.547748 356.644159 
L 247.156757 356.416439 
L 246.765766 356.188215 
L 246.374775 355.959486 
L 245.983784 355.730248 
L 245.592793 355.5005 
L 245.201802 355.27024 
L 244.810811 355.039465 
L 244.41982 354.808173 
L 244.028829 354.576362 
L 243.637838 354.344029 
L 243.246847 354.111172 
L 242.855856 353.877788 
L 242.464865 353.643876 
L 242.073874 353.409433 
L 241.682883 353.174456 
L 241.291892 352.938943 
L 240.900901 352.702892 
L 240.50991 352.4663 
L 240.118919 352.229165 
L 239.727928 351.991484 
L 239.336937 351.753254 
L 238.945946 351.514475 
L 238.554955 351.275142 
L 238.163964 351.035253 
L 237.772973 350.794806 
L 237.381982 350.553799 
L 236.990991 350.312228 
L 236.6 350.070091 
L 236.209009 349.827385 
L 235.818018 349.584109 
L 235.427027 349.340259 
L 235.036036 349.095832 
L 234.645045 348.850827 
L 234.254054 348.605239 
L 233.863063 348.359068 
L 233.472072 348.112309 
L 233.081081 347.86496 
L 232.69009 347.617019 
L 232.299099 347.368483 
L 231.908108 347.119348 
L 231.517117 346.869613 
L 231.126126 346.619274 
L 230.735135 346.368328 
L 230.344144 346.116774 
L 229.953153 345.864607 
L 229.562162 345.611825 
L 229.171171 345.358425 
L 228.78018 345.104405 
L 228.389189 344.84976 
L 227.998198 344.594489 
L 227.607207 344.338589 
L 227.216216 344.082056 
L 226.825225 343.824887 
L 226.434234 343.567079 
L 226.043243 343.30863 
L 225.652252 343.049537 
L 225.261261 342.789795 
L 224.87027 342.529403 
L 224.479279 342.268357 
L 224.088288 342.006654 
L 223.697297 341.74429 
L 223.306306 341.481263 
L 222.915315 341.21757 
L 222.524324 340.953207 
L 222.133333 340.68817 
L 221.742342 340.422458 
L 221.351351 340.156066 
L 220.96036 339.888991 
L 220.569369 339.62123 
L 220.178378 339.35278 
L 219.787387 339.083637 
L 219.396396 338.813798 
L 219.005405 338.543259 
L 218.614414 338.272017 
L 218.223423 338.000069 
L 217.832432 337.727411 
L 217.441441 337.454039 
L 217.05045 337.179951 
L 216.659459 336.905143 
L 216.268468 336.62961 
L 215.877477 336.35335 
L 215.486486 336.076359 
L 215.095495 335.798633 
L 214.704505 335.520169 
L 214.313514 335.240962 
L 213.922523 334.96101 
L 213.531532 334.680309 
L 213.140541 334.398854 
L 212.74955 334.116643 
L 212.358559 333.83367 
L 211.967568 333.549933 
L 211.576577 333.265428 
L 211.185586 332.98015 
L 210.794595 332.694096 
L 210.403604 332.407262 
L 210.012613 332.119644 
L 209.621622 331.831238 
L 209.230631 331.54204 
L 208.83964 331.252046 
L 208.448649 330.961252 
L 208.057658 330.669654 
L 207.666667 330.377247 
L 207.275676 330.084028 
L 206.884685 329.789992 
L 206.493694 329.495136 
L 206.102703 329.199454 
L 205.711712 328.902943 
L 205.320721 328.605599 
L 204.92973 328.307416 
L 204.538739 328.008392 
L 204.147748 327.708521 
L 203.756757 327.407798 
L 203.365766 327.106221 
L 202.974775 326.803783 
L 202.583784 326.500481 
L 202.192793 326.19631 
L 201.801802 325.891266 
L 201.410811 325.585343 
L 201.01982 325.278538 
L 200.628829 324.970846 
L 200.237838 324.662261 
L 199.846847 324.352779 
L 199.455856 324.042396 
L 199.064865 323.731107 
L 198.673874 323.418906 
L 198.282883 323.105789 
L 197.891892 322.791751 
L 197.500901 322.476788 
L 197.10991 322.160893 
L 196.718919 321.844063 
L 196.327928 321.526291 
L 195.936937 321.207574 
L 195.545946 320.887906 
L 195.154955 320.567281 
L 194.763964 320.245695 
L 194.372973 319.923142 
L 193.981982 319.599617 
L 193.590991 319.275115 
L 193.2 318.94963 
L 192.809009 318.623157 
L 192.418018 318.295691 
L 192.027027 317.967225 
L 191.636036 317.637756 
L 191.245045 317.307276 
L 190.854054 316.975781 
L 190.463063 316.643264 
L 190.072072 316.309721 
L 189.681081 315.975144 
L 189.29009 315.63953 
L 188.899099 315.302871 
L 188.508108 314.965163 
L 188.117117 314.626398 
L 187.726126 314.286571 
L 187.335135 313.945677 
L 186.944144 313.603708 
L 186.553153 313.26066 
L 186.162162 312.916525 
L 185.771171 312.571298 
L 185.38018 312.224973 
L 184.989189 311.877543 
L 184.598198 311.529001 
L 184.207207 311.179342 
L 183.816216 310.828559 
L 183.425225 310.476646 
L 183.034234 310.123595 
L 182.643243 309.769401 
L 182.252252 309.414057 
L 181.861261 309.057557 
L 181.47027 308.699892 
L 181.079279 308.341057 
L 180.688288 307.981045 
L 180.297297 307.619849 
L 179.906306 307.257462 
L 179.515315 306.893877 
L 179.124324 306.529086 
L 178.733333 306.163083 
L 178.342342 305.795861 
L 177.951351 305.427412 
L 177.56036 305.057729 
L 177.169369 304.686805 
L 176.778378 304.314632 
L 176.387387 303.941203 
L 175.996396 303.56651 
L 175.605405 303.190545 
L 175.214414 302.813302 
L 174.823423 302.434771 
L 174.432432 302.054946 
L 174.041441 301.673819 
L 173.65045 301.291381 
L 173.259459 300.907625 
L 172.868468 300.522542 
L 172.477477 300.136124 
L 172.086486 299.748364 
L 171.695495 299.359253 
L 171.304505 298.968782 
L 170.913514 298.576944 
L 170.522523 298.183729 
L 170.131532 297.78913 
L 169.740541 297.393136 
L 169.34955 296.995741 
L 168.958559 296.596935 
L 168.567568 296.196709 
L 168.176577 295.795054 
L 167.785586 295.391961 
L 167.394595 294.987422 
L 167.003604 294.581426 
L 166.612613 294.173965 
L 166.221622 293.76503 
L 165.830631 293.35461 
L 165.43964 292.942697 
L 165.048649 292.529281 
L 164.657658 292.114352 
L 164.266667 291.697901 
L 163.875676 291.279917 
L 163.484685 290.860391 
L 163.093694 290.439313 
L 162.702703 290.016672 
L 162.311712 289.592459 
L 161.920721 289.166663 
L 161.52973 288.739274 
L 161.138739 288.31028 
L 160.747748 287.879673 
L 160.356757 287.44744 
L 159.965766 287.013572 
L 159.574775 286.578057 
L 159.183784 286.140884 
L 158.792793 285.702043 
L 158.401802 285.261522 
L 158.010811 284.81931 
L 157.61982 284.375395 
L 157.228829 283.929766 
L 156.837838 283.482412 
L 156.446847 283.03332 
L 156.055856 282.582479 
L 155.664865 282.129877 
L 155.273874 281.675502 
L 154.882883 281.219342 
L 154.491892 280.761384 
L 154.100901 280.301616 
L 153.70991 279.840026 
L 153.318919 279.376601 
L 152.927928 278.911328 
L 152.536937 278.444194 
L 152.145946 277.975186 
L 151.754955 277.504292 
L 151.363964 277.031497 
L 150.972973 276.556789 
L 150.581982 276.080155 
L 150.190991 275.601579 
L 149.8 275.121049 
L 149.409009 274.638551 
L 149.018018 274.15407 
L 148.627027 273.667592 
L 148.236036 273.179104 
L 147.845045 272.68859 
L 147.454054 272.196036 
L 147.063063 271.701427 
L 146.672072 271.204749 
L 146.281081 270.705985 
L 145.89009 270.205121 
L 145.499099 269.702142 
L 145.108108 269.197032 
L 144.717117 268.689775 
L 144.326126 268.180355 
L 143.935135 267.668756 
L 143.544144 267.154963 
L 143.153153 266.638958 
L 142.762162 266.120726 
L 142.371171 265.600249 
L 141.98018 265.07751 
L 141.589189 264.552493 
L 141.198198 264.02518 
L 140.807207 263.495554 
L 140.416216 262.963597 
L 140.025225 262.429292 
L 139.634234 261.89262 
L 139.243243 261.353563 
L 138.852252 260.812102 
L 138.461261 260.26822 
L 138.07027 259.721898 
L 137.679279 259.173116 
L 137.288288 258.621855 
L 136.897297 258.068096 
L 136.506306 257.511819 
L 136.115315 256.953004 
L 135.724324 256.391632 
L 135.333333 255.827681 
L 134.942342 255.261133 
L 134.551351 254.691964 
L 134.16036 254.120156 
L 133.769369 253.545686 
L 133.378378 252.968534 
L 132.987387 252.388677 
L 132.596396 251.806093 
L 132.205405 251.22076 
L 131.814414 250.632657 
L 131.423423 250.04176 
L 131.032432 249.448046 
L 130.641441 248.851492 
L 130.25045 248.252074 
L 129.859459 247.649769 
L 129.468468 247.044553 
L 129.077477 246.436401 
L 128.686486 245.82529 
L 128.295495 245.211192 
L 127.904505 244.594085 
L 127.513514 243.973942 
L 127.122523 243.350737 
L 126.731532 242.724445 
L 126.340541 242.095038 
L 125.94955 241.462491 
L 125.558559 240.826776 
L 125.167568 240.187865 
L 124.776577 239.545731 
L 124.385586 238.900347 
L 123.994595 238.251682 
L 123.603604 237.59971 
L 123.212613 236.9444 
L 122.821622 236.285723 
L 122.430631 235.62365 
L 122.03964 234.95815 
L 121.648649 234.289192 
L 121.257658 233.616746 
L 120.866667 232.94078 
L 120.475676 232.261263 
L 120.084685 231.578162 
L 119.693694 230.891444 
L 119.302703 230.201078 
L 118.911712 229.507028 
L 118.520721 228.809262 
L 118.12973 228.107745 
L 117.738739 227.402443 
L 117.347748 226.69332 
L 116.956757 225.98034 
L 116.565766 225.263468 
L 116.174775 224.542667 
L 115.783784 223.817899 
L 115.392793 223.089128 
L 115.001802 222.356315 
L 114.610811 221.619421 
L 114.21982 220.878408 
L 113.828829 220.133236 
L 113.437838 219.383864 
L 113.046847 218.630252 
L 112.655856 217.872358 
L 112.264865 217.110141 
L 111.873874 216.343559 
L 111.482883 215.572567 
L 111.091892 214.797124 
L 110.700901 214.017183 
L 110.30991 213.232702 
L 109.918919 212.443633 
L 109.527928 211.649931 
L 109.136937 210.851549 
L 108.745946 210.04844 
L 108.354955 209.240555 
L 107.963964 208.427847 
L 107.572973 207.610264 
L 107.181982 206.787757 
L 106.790991 205.960275 
L 106.4 205.127766 
L 106.009009 204.290178 
L 105.618018 203.447457 
L 105.227027 202.59955 
L 104.836036 201.7464 
L 104.445045 200.887954 
L 104.054054 200.024154 
L 103.663063 199.154942 
L 103.272072 198.280261 
L 102.881081 197.400052 
L 102.49009 196.514253 
L 102.099099 195.622805 
L 101.708108 194.725646 
L 101.317117 193.822712 
L 100.926126 192.913939 
L 100.535135 191.999263 
L 100.144144 191.078619 
L 99.753153 190.151938 
L 99.362162 189.219152 
L 98.971171 188.280194 
L 98.58018 187.334992 
L 98.189189 186.383476 
L 97.798198 185.425572 
L 97.407207 184.461207 
L 97.016216 183.490307 
L 96.625225 182.512795 
L 96.234234 181.528593 
L 95.843243 180.537623 
L 95.452252 179.539806 
L 95.061261 178.535059 
L 94.67027 177.5233 
L 94.279279 176.504445 
L 93.888288 175.478409 
L 93.497297 174.445104 
L 93.106306 173.404443 
L 92.715315 172.356334 
L 92.324324 171.300686 
L 91.933333 170.237407 
L 91.542342 169.166401 
L 91.151351 168.087573 
L 90.76036 167.000822 
L 90.369369 165.906051 
L 89.978378 164.803156 
L 89.587387 163.692035 
L 89.196396 162.572582 
L 88.805405 161.444689 
L 88.414414 160.308248 
L 88.023423 159.163146 
L 87.632432 158.00927 
L 87.241441 156.846506 
L 86.85045 155.674734 
L 86.459459 154.493835 
L 86.068468 153.303687 
L 85.677477 152.104165 
L 85.286486 150.895142 
L 84.895495 149.67649 
L 84.504505 148.448075 
L 84.113514 147.209763 
L 83.722523 145.961418 
L 83.331532 144.702899 
L 82.940541 143.434065 
L 82.54955 142.154768 
L 82.158559 140.864861 
L 81.767568 139.564193 
L 81.376577 138.252609 
L 80.985586 136.929951 
L 80.594595 135.596059 
L 80.203604 134.250767 
L 79.812613 132.893909 
L 79.421622 131.525314 
L 79.030631 130.144806 
L 78.63964 128.752207 
L 78.248649 127.347335 
L 77.857658 125.930002 
L 77.466667 124.50002 
L 77.075676 123.057194 
L 76.684685 121.601324 
L 76.293694 120.132207 
L 75.902703 118.649637 
L 75.511712 117.1534 
L 75.120721 115.643279 
L 74.72973 114.119053 
L 74.338739 112.580494 
L 73.947748 111.02737 
L 73.556757 109.459443 
L 73.165766 107.87647 
L 72.774775 106.278201 
L 72.383784 104.664382 
L 71.992793 103.034752 
L 71.601802 101.389043 
L 71.210811 99.726982 
L 70.81982 98.048288 
L 70.428829 96.352673 
L 70.037838 94.639844 
L 69.646847 92.909498 
L 69.255856 91.161326 
L 68.864865 89.395011 
L 68.473874 87.610227 
L 68.082883 85.80664 
L 67.691892 83.983909 
L 67.300901 82.141682 
L 66.90991 80.279598 
L 66.518919 78.397287 
L 66.127928 76.494368 
L 65.736937 74.570453 
L 65.345946 72.625139 
L 64.954955 70.658015 
L 64.563964 68.668658 
L 64.172973 66.656631 
L 63.781982 64.621488 
L 63.390991 62.562769 
z
" style="fill:#a7d0e4;"/>
   </g>
   <g id="line2d_1">
    <path clip-path="url(#p621ece8dd2)" d="M 63.390991 62.562769 
L 66.127928 76.494368 
L 68.864865 89.395011 
L 71.992793 103.034752 
L 75.120721 115.643279 
L 78.248649 127.347335 
L 81.376577 138.252609 
L 84.895495 149.67649 
L 88.414414 160.308248 
L 91.933333 170.237407 
L 95.452252 179.539806 
L 99.362162 189.219152 
L 103.272072 198.280261 
L 107.181982 206.787757 
L 111.091892 214.797124 
L 115.392793 223.089128 
L 119.693694 230.891444 
L 123.994595 238.251682 
L 128.686486 245.82529 
L 133.378378 252.968534 
L 138.07027 259.721898 
L 143.153153 266.638958 
L 148.236036 273.179104 
L 153.318919 279.376601 
L 158.792793 285.702043 
L 164.266667 291.697901 
L 170.131532 297.78913 
L 175.996396 303.56651 
L 182.252252 309.414057 
L 188.508108 314.965163 
L 195.154955 320.567281 
L 202.192793 326.19631 
L 209.230631 331.54204 
L 216.659459 336.905143 
L 224.479279 342.268357 
L 232.69009 347.617019 
L 240.900901 352.702892 
L 249.502703 357.775287 
L 258.495495 362.824643 
L 267.879279 367.843483 
L 278.045045 373.0208 
L 288.601802 378.140551 
L 299.54955 383.203086 
L 311.279279 388.379417 
L 323.790991 393.651932 
L 337.084685 399.009241 
L 351.551351 404.595223 
L 367.581982 410.541049 
L 386.34955 417.254612 
L 413.718919 426.776157 
L 439.915315 435.955246 
L 452.818018 440.702909 
L 453.6 441 
L 453.6 441 
" style="fill:none;stroke:#666666;stroke-linecap:round;stroke-width:2.275;"/>
   </g>
   <g id="patch_3">
    <path d="M 63 441 
L 63 60.48 
" style="fill:none;stroke:#262626;stroke-linecap:square;stroke-linejoin:miter;stroke-width:1.25;"/>
   </g>
   <g id="patch_4">
    <path d="M 453.6 441 
L 453.6 60.48 
" style="fill:none;stroke:#262626;stroke-linecap:square;stroke-linejoin:miter;stroke-width:1.25;"/>
   </g>
   <g id="patch_5">
    <path d="M 63 441 
L 453.6 441 
" style="fill:none;stroke:#262626;stroke-linecap:square;stroke-linejoin:miter;stroke-width:1.25;"/>
   </g>
   <g id="patch_6">
    <path d="M 63 60.48 
L 453.6 60.48 
" style="fill:none;stroke:#262626;stroke-linecap:square;stroke-linejoin:miter;stroke-width:1.25;"/>
   </g>
  </g>
 </g>
 <defs>
  <clipPath id="p621ece8dd2">
   <rect height="380.52" width="390.6" x="63" y="60.48"/>
  </clipPath>
 </defs>
</svg>
